<svg xmlns="http://www.w3.org/2000/svg" viewBox="0 0 801 1300"><defs><style>.cls-1{isolation:isolate;}.cls-2{mix-blend-mode:color;}.cls-3{fill:#ff9c71;}.cls-3,.cls-4{stroke:#000;stroke-miterlimit:10;}.cls-4,.cls-6{fill:#e8ead3;}.cls-5{fill:#3535ef;}.cls-7{fill:#2a2a33;}</style></defs><g class="cls-1"><g id="Background" class="cls-2"><rect class="cls-3" x="0.5" y="0.5" width="800" height="1299"/></g><g id="Card_type" data-name="Card type"><rect class="cls-4" x="188.5" y="38.5" width="412" height="113"/><path class="cls-5" d="M207.58,66h14.27c19,0,28,12,28,30.75S240.85,128,222,128H207.58Zm13.84,58.25c16.68,0,23.91-11.35,23.91-27.5s-7.23-27.08-23.91-27.08h-9.5v54.58Z" transform="translate(0 0)"/><path class="cls-5" d="M262.13,105.45c0-14.72,10.81-23.74,22.62-23.74,12.34,0,20.19,7.94,20.19,20.88a22.32,22.32,0,0,1-.24,3.47H264.22v-3.55H302.9l-1.77,1.68c0-12.79-6.66-18.9-16.33-18.9-9.41,0-18.39,7.35-18.39,20,0,13.07,9.08,20.19,19.78,20.19a25.67,25.67,0,0,0,15.14-4.88l1.73,3.16a29.36,29.36,0,0,1-17.13,5.32C272.89,129.1,262.13,120.26,262.13,105.45Z" transform="translate(0 0)"/><path class="cls-5" d="M322.16,83.24l13.59-.4h24.89v3.62H322.16Zm13.54-5.83c0-11.37,5.56-18.18,16.92-18.18A28.65,28.65,0,0,1,365.23,62l-1.31,3.23a22.83,22.83,0,0,0-11.1-2.37c-9.47,0-13.11,5.77-13.11,14.2V128h-4Z" transform="translate(0 0)"/><path class="cls-5" d="M374.93,105.45c0-14.72,10.81-23.74,22.62-23.74,12.34,0,20.18,7.94,20.18,20.88a21.16,21.16,0,0,1-.24,3.47H377v-3.55H415.7l-1.77,1.68c0-12.79-6.66-18.9-16.33-18.9-9.42,0-18.39,7.35-18.39,20,0,13.07,9.08,20.19,19.78,20.19a25.7,25.7,0,0,0,15.14-4.88l1.72,3.16a29.31,29.31,0,0,1-17.12,5.32C385.69,129.1,374.93,120.26,374.93,105.45Z" transform="translate(0 0)"/><path class="cls-5" d="M434,82.84h3.51L438,91.5h.37c5.21-5.6,10.54-9.79,17.82-9.79,10.95,0,16.2,5.91,16.2,18.15V128h-4.17V100.41c0-10.08-3.76-15-12.7-15-6.41,0-10.82,3.35-17.32,10.17V128H434Z" transform="translate(0 0)"/><path class="cls-5" d="M488.21,122l2.2-3c5,3.89,11,6.61,20.45,6.61,9.22,0,13.93-4.15,13.93-8.9,0-4.09-1.58-7.36-15.9-10.24-11.46-2.3-18-6-18-12.66s5.53-12,17.62-12a31.68,31.68,0,0,1,17.33,5.55l-2.25,3a25.56,25.56,0,0,0-15.39-5c-9.83,0-13,4-13,8.22,0,4.77,4.64,7.15,14.86,9.26,15.61,3.29,19.07,6.91,19.07,13.62s-6.76,12.74-18.66,12.74A38.53,38.53,0,0,1,488.21,122Z" transform="translate(0 0)"/><path class="cls-5" d="M544.12,105.45c0-14.72,10.82-23.74,22.63-23.74,12.34,0,20.18,7.94,20.18,20.88a21.16,21.16,0,0,1-.24,3.47H546.21v-3.55h38.68l-1.76,1.68c0-12.79-6.66-18.9-16.33-18.9-9.42,0-18.39,7.35-18.39,20,0,13.07,9.07,20.19,19.77,20.19a25.7,25.7,0,0,0,15.15-4.88l1.72,3.16a29.31,29.31,0,0,1-17.12,5.32C554.89,129.1,544.12,120.26,544.12,105.45Z" transform="translate(0 0)"/><text/></g><g id="card_text" data-name="card text"><rect class="cls-6" x="43" y="839" width="722" height="419"/><path d="M183.68,911.31h4.37l21.8,61.93h-4.63l-12.33-36.45c-2.5-7.34-4.71-13.84-6.86-21.39h-.38c-2.18,7.55-4.36,14.05-6.86,21.39l-12.52,36.45h-4.39Zm-11.83,37H199.6V952H171.85Z" transform="translate(0 0)"/><path d="M228.13,968.17h-.22l-.47,5.07H224V905.63h4.17v19.61l-.24,9.65h.22c4.55-4.7,11.06-7.91,16.89-7.91,12.73,0,19.13,9,19.13,23,0,15.33-9.85,24.38-20.93,24.38C238.63,974.37,232.63,972,228.13,968.17ZM259.78,950c0-11.09-4.38-19.33-15.41-19.33-4.73,0-10.59,2.61-16.23,8.27V964c5.26,4.81,11.15,6.64,14.85,6.64C252.67,970.67,259.78,962.25,259.78,950Z" transform="translate(0 0)"/><path d="M278.17,967.23l2.2-3.05c5,3.9,11,6.61,20.45,6.61,9.21,0,13.93-4.15,13.93-8.89,0-4.1-1.58-7.36-15.91-10.24-11.45-2.31-18-6-18-12.67s5.53-12,17.62-12a31.65,31.65,0,0,1,17.32,5.55l-2.25,3a25.54,25.54,0,0,0-15.39-5c-9.83,0-13,4-13,8.22,0,4.77,4.63,7.15,14.85,9.26,15.61,3.29,19.07,6.91,19.07,13.62s-6.75,12.74-18.66,12.74A38.57,38.57,0,0,1,278.17,967.23Z" transform="translate(0 0)"/><path d="M333.19,950.77c0-15.12,10.05-23.79,21.87-23.79s21.88,8.67,21.88,23.79c0,14.93-10.05,23.6-21.88,23.6S333.19,965.7,333.19,950.77Zm39.38,0c0-11.9-7.33-20.11-17.51-20.11s-17.51,8.21-17.51,20.11,7.33,19.92,17.51,19.92S372.57,962.64,372.57,950.77Z" transform="translate(0 0)"/><path d="M408.71,959.63V909.26H391.59v-3.63h21.3V960.2c0,7.12,3.43,10.49,9.84,10.49a21.18,21.18,0,0,0,9.31-2.34l1.36,3.23a23.47,23.47,0,0,1-11.27,2.79C413.59,974.37,408.71,969.89,408.71,959.63Z" transform="translate(0 0)"/><path d="M447.79,956.22V928.11H452v27.56c0,10.06,3.76,14.94,12.72,14.94,6.36,0,11.1-3.19,17.27-10.21V928.11h4.18v45.13h-3.54l-.46-8.74h-.37c-4.88,5.7-10.51,9.87-17.77,9.87C453,974.37,447.79,968.46,447.79,956.22Z" transform="translate(0 0)"/><path d="M517.2,956.37V931.74H503.55v-3.23l13.73-.4.56-14.94h3.54v14.94h24v3.63h-24v24.93c0,8.79,2.52,14.05,12.59,14.05a31.35,31.35,0,0,0,12-2.34l1.15,3.2a35,35,0,0,1-13.74,2.79C521,974.37,517.2,967.1,517.2,956.37Z" transform="translate(0 0)"/><path d="M559.67,950.72C559.67,936,570.49,927,582.3,927c12.34,0,20.18,7.94,20.18,20.88a21.16,21.16,0,0,1-.24,3.47H561.76v-3.55h38.68l-1.76,1.68c0-12.79-6.66-18.9-16.33-18.9-9.42,0-18.39,7.35-18.39,20,0,13.08,9.08,20.19,19.77,20.19a25.77,25.77,0,0,0,15.15-4.87l1.72,3.16a29.38,29.38,0,0,1-17.12,5.31C570.44,974.37,559.67,965.54,559.67,950.72Z" transform="translate(0 0)"/><path d="M221.77,1080l2.2-3c5,3.9,11,6.61,20.45,6.61,9.21,0,13.93-4.15,13.93-8.89,0-4.1-1.58-7.36-15.91-10.24-11.45-2.31-18-6-18-12.67,0-6.51,5.53-12,17.62-12a31.65,31.65,0,0,1,17.32,5.55l-2.25,3a25.54,25.54,0,0,0-15.39-5c-9.83,0-13,4-13,8.22,0,4.77,4.63,7.15,14.85,9.26,15.61,3.29,19.08,6.91,19.08,13.62s-6.76,12.74-18.67,12.74A38.57,38.57,0,0,1,221.77,1080Z" transform="translate(0 0)"/><path d="M280.37,1018.43h4.17V1038l-.26,11.83h.21c5.36-5.89,10.86-10.09,18-10.09,11,0,16.2,5.91,16.2,18.15V1086h-4.17v-27.56c0-10.08-3.76-14.94-12.69-14.94-6.41,0-10.83,3.34-17.33,10.16V1086h-4.17Z" transform="translate(0 0)"/><path d="M358.59,1044.54H336v-3.63h26.76V1086h-4.18Zm-3.3-19.1a4.42,4.42,0,1,1,4.42,4.51A4.29,4.29,0,0,1,355.29,1025.44Z" transform="translate(0 0)"/><path d="M390.48,1063.52c0-14.72,10.81-23.74,22.62-23.74,12.34,0,20.18,7.94,20.18,20.88a21.16,21.16,0,0,1-.24,3.47H392.57v-3.55h38.68l-1.77,1.68c0-12.79-6.66-18.9-16.33-18.9-9.41,0-18.39,7.35-18.39,20,0,13.08,9.08,20.19,19.78,20.19a25.74,25.74,0,0,0,15.14-4.87l1.72,3.16a29.38,29.38,0,0,1-17.12,5.31C401.24,1087.17,390.48,1078.33,390.48,1063.52Z" transform="translate(0 0)"/><path d="M465.11,1072.43v-50.37H448v-3.63h21.3V1073c0,7.12,3.43,10.49,9.84,10.49a21.18,21.18,0,0,0,9.31-2.34l1.35,3.23a23.4,23.4,0,0,1-11.26,2.79C470,1087.17,465.11,1082.69,465.11,1072.43Z" transform="translate(0 0)"/><path d="M502.39,1063.57c0-14.58,10-23.79,21.22-23.79,5.66,0,10.3,2.37,14.82,6.38h.19l-.24-9.12v-18.61h4.17V1086H539l-.46-6.7h-.21c-4,4.13-9.76,7.83-16.11,7.83C510.42,1087.17,502.39,1078.8,502.39,1063.57Zm36,11.62v-25.07c-5.09-4.81-9.77-6.63-14.47-6.63-9.54,0-17.16,8.73-17.16,20,0,12,6,19.93,16.11,19.93C528.12,1083.47,533.38,1080.53,538.38,1075.19Z" transform="translate(0 0)"/></g><g id="card_logo_right" data-name="card logo right"><ellipse class="cls-7" cx="234.5" cy="404" rx="36" ry="45.5"/><path d="M672,359.5V447l-11,37-10,37-10,39-19,37-21,43-28,41-35,38-38,29-43,33-31,19-21.75,14.83L382.5,800l-31-19-43-33-38-29-35-38-28-41-21-43-19-37-10-39-10-37-11-37V359.5l-6-69H156l34-9,36-6,36-7,42-14,45-13,51-23,.19-.42L451,241l45,13,42,14,36,7,36,6,34,9h32l-3.5,69.5ZM270.5,404c0-25.13-16.12-45.5-36-45.5s-36,20.37-36,45.5,16.12,45.5,36,45.5S270.5,429.13,270.5,404Z" transform="translate(0 0)"/></g></g></svg>