<svg xmlns="http://www.w3.org/2000/svg" viewBox="0 0 801 1300"><defs><style>.cls-1{isolation:isolate;}.cls-2{mix-blend-mode:color;}.cls-3{fill:#fbd46d;stroke:#000;}.cls-13,.cls-3,.cls-4{stroke-miterlimit:10;}.cls-4{fill:#ff9c71;}.cls-13,.cls-4{stroke:#e8ead3;}.cls-5{fill:#e3170d;}.cls-6{fill:#f70000;}.cls-7{fill:#f93;}.cls-8{fill:#fe5a1d;}.cls-9{fill:#9dc209;}.cls-10{fill:#138808;}.cls-11{fill:#273be2;}.cls-12{fill:#0b1a95;}.cls-13{fill:#654062;}</style></defs><g class="cls-1"><g id="Background" class="cls-2"><rect class="cls-3" x="0.5" y="0.5" width="800" height="1299"/></g><g id="logo"><ellipse class="cls-4" cx="406.5" cy="614.5" rx="197" ry="192"/><path class="cls-5" d="M156.78,602.33h0L120.22,572l-.1,0,9.69,29.63Zm-50.37-55.49L187,613.64,101.72,749,19,614Zm6,166.95L163,622.68l-26.55,2.91ZM73.64,604.27l26.55-34.57-52.6,33.6ZM94.57,714.43l-26-91.1L43,622Z" transform="translate(0 0)"/><polygon class="cls-6" points="163 622.68 112.45 713.79 136.45 625.59 163 622.68"/><polygon class="cls-6" points="156.78 602.32 156.78 602.33 129.81 601.69 120.11 572.06 120.22 572.01 156.78 602.32"/><polygon class="cls-6" points="100.19 569.7 73.64 604.27 47.59 603.3 100.19 569.7"/><polygon class="cls-6" points="68.53 623.33 94.57 714.43 43 622.04 68.53 623.33"/><polygon class="cls-7" points="434.94 247.38 462.28 244.59 410.23 332.15 434.94 247.38"/><polygon class="cls-7" points="418.23 195.88 455.88 225.02 455.88 225.03 428.11 224.41 418.13 195.93 418.23 195.88"/><path class="cls-8" d="M370.26,226.89l27.35-33.22L343.45,226Zm92,17.7-27.34,2.79-24.71,84.77ZM455.89,225h0l-37.66-29.14-.11.05,10,28.48Zm-.35-13.47L487,235.9,399.18,366,314,236.21l90-64.52ZM391.82,332.78,365,245.21,338.71,244Z" transform="translate(0 0)"/><polygon class="cls-7" points="365 245.21 391.82 332.77 338.71 243.97 365 245.21"/><polygon class="cls-7" points="343.45 225.96 397.61 193.67 370.26 226.89 343.45 225.96"/><polygon class="cls-9" points="736.64 612.33 764.14 609.65 711.78 693.56 736.64 612.33"/><polygon class="cls-9" points="719.83 562.97 757.71 590.89 757.71 590.9 729.76 590.3 719.73 563.01 719.83 562.97"/><path class="cls-10" d="M671.59,592.68l27.5-31.84-54.47,30.95Zm92.55,17-27.5,2.67-24.86,81.24Zm-6.43-18.75h0L719.83,563l-.1,0,10,27.29ZM757.36,578,789,601.31,700.68,726,615,601.61l90.53-61.83ZM693.27,694.16l-27-83.92-26.44-1.19Z" transform="translate(0 0)"/><polygon class="cls-9" points="666.3 610.24 693.27 694.16 639.86 609.05 666.3 610.24"/><polygon class="cls-9" points="644.62 591.79 699.09 560.84 671.59 592.68 644.62 591.79"/><path class="cls-11" d="M456.71,907.5h0l-37.88-29.87-.1,0,10,29.19Zm-.35-13.81L488,918.64,399.68,1052,314,919l90.53-66.13Zm-45.58,123.62,52.36-89.76-27.5,2.87Zm-40.19-107.9,27.5-34-54.47,33.1Zm21.68,108.53-27-89.75-26.44-1.27Z" transform="translate(0 0)"/><polygon class="cls-12" points="463.14 927.55 410.78 1017.31 435.64 930.42 463.14 927.55"/><polygon class="cls-12" points="456.7 907.49 456.7 907.5 428.76 906.87 418.73 877.67 418.83 877.62 456.7 907.49"/><polygon class="cls-12" points="398.09 875.36 370.59 909.41 343.62 908.46 398.09 875.36"/><polygon class="cls-12" points="365.3 928.19 392.27 1017.94 338.86 926.92 365.3 928.19"/><ellipse class="cls-13" cx="407" cy="617.5" rx="147" ry="125.5"/></g></g></svg>