<svg xmlns="http://www.w3.org/2000/svg" viewBox="0 0 801 1300"><defs><style>.cls-1{isolation:isolate;}.cls-2{mix-blend-mode:color;}.cls-3{fill:#ff9c71;}.cls-3,.cls-4,.cls-9{stroke:#000;stroke-miterlimit:10;}.cls-4,.cls-6{fill:#e8ead3;}.cls-5{fill:#a21200;}.cls-7{fill:#a39696;}.cls-8{fill:#282626;}.cls-9{fill:none;}</style></defs><g class="cls-1"><g id="Background" class="cls-2"><rect class="cls-3" x="0.5" y="0.5" width="800" height="1299"/></g><g id="Card_type" data-name="Card type"><rect class="cls-4" x="188.5" y="38.5" width="412" height="113"/><path class="cls-5" d="M248.53,66h4.37L274.7,128h-4.63L257.74,91.51c-2.51-7.34-4.71-13.83-6.86-21.38h-.38c-2.18,7.55-4.36,14-6.86,21.38L231.12,128h-4.39Zm-11.83,37h27.74v3.65H236.7Z" transform="translate(0 0)"/><path class="cls-5" d="M300.06,111.09V86.46H286.4V83.24l13.73-.4.56-14.94h3.54V82.84h24v3.62h-24v24.93c0,8.8,2.52,14,12.59,14a31.21,31.21,0,0,0,12-2.34l1.14,3.2a35,35,0,0,1-13.74,2.8C303.83,129.1,300.06,121.83,300.06,111.09Z" transform="translate(0 0)"/><path class="cls-5" d="M356.46,111.09V86.46H342.8V83.24l13.73-.4.56-14.94h3.54V82.84h24v3.62h-24v24.93c0,8.8,2.52,14,12.59,14a31.21,31.21,0,0,0,12-2.34l1.14,3.2a35,35,0,0,1-13.74,2.8C360.23,129.1,356.46,121.83,356.46,111.09Z" transform="translate(0 0)"/><path class="cls-5" d="M400.33,116.74c0-10.11,10.13-14.88,34.61-17-.07-7.43-3.08-14.34-13.42-14.34-6.81,0-13.39,3.51-17.08,6.14l-1.93-3.08c3.6-2.59,11.45-6.71,19.5-6.71,12.09,0,17.11,7.77,17.11,17.43V128h-3.54l-.46-6.75h-.21c-5.19,4.15-12.18,7.88-18.84,7.88C408,129.1,400.33,125.19,400.33,116.74Zm34.61.59V102.89c-23,2-30.33,6.38-30.33,13.63,0,6.47,6.07,9,12.16,9C422.55,125.47,428.59,122.68,434.94,117.33Z" transform="translate(0 0)"/><path class="cls-5" d="M456.32,105.5c0-15.12,11.1-23.79,24.58-23.79a22.18,22.18,0,0,1,16.22,6.88l-2.41,2.86c-3.83-3.61-8.19-6.06-13.74-6.06-12,0-20.29,8.21-20.29,20.11s8.1,19.92,20.24,19.92c6.12,0,11.16-2.74,15.2-6.49l2.17,2.89a25.16,25.16,0,0,1-17.52,7.28C466.76,129.1,456.32,120.42,456.32,105.5Z" transform="translate(0 0)"/><path class="cls-5" d="M516.09,60.36h4.17V110h.38l29-27.18h5.17l-34.53,32.31V128h-4.17ZM532.5,101.8l2.79-2.88L557.78,128H553Z" transform="translate(0 0)"/><text/></g><g id="card_text" data-name="card text"><rect class="cls-6" x="43" y="839" width="722" height="419"/><path d="M232.78,976.31h4.36v27.12h31V976.31h4.37v61.93h-4.37v-31h-31v31h-4.36Z" transform="translate(0 0)"/><path d="M289.48,1027c0-10.1,10.13-14.88,34.62-17-.08-7.44-3.09-14.35-13.43-14.35-6.81,0-13.39,3.51-17.07,6.14l-1.94-3.07c3.6-2.6,11.45-6.72,19.5-6.72,12.09,0,17.11,7.77,17.11,17.43v28.83h-3.54l-.46-6.75h-.21c-5.19,4.15-12.18,7.88-18.84,7.88C297.14,1039.37,289.48,1035.47,289.48,1027Zm34.62.6v-14.45c-23,2.05-30.34,6.39-30.34,13.63,0,6.47,6.07,9,12.16,9C311.7,1035.74,317.74,1033,324.1,1027.61Z" transform="translate(0 0)"/><path d="M344.22,993.11h3.47l.45,6.15h.19c2.62-4.43,5.37-7.28,10.43-7.28s7.74,2.63,9,8c3.25-5.16,6-8,11.06-8,6.25,0,9.81,4.5,9.81,13.55v32.71h-4.15V1006c0-6.77-2.12-10.25-6.46-10.25-4.09,0-6.6,2.83-9.59,8.49v34h-4V1006c0-6.77-2.07-10.25-6.41-10.25-4.09,0-6.7,2.83-9.64,8.49v34h-4.15Z" transform="translate(0 0)"/><path d="M400.62,993.11h3.46l.46,6.15h.19c2.62-4.43,5.37-7.28,10.43-7.28s7.74,2.63,9,8c3.25-5.16,6-8,11.06-8,6.25,0,9.81,4.5,9.81,13.55v32.71h-4.15V1006c0-6.77-2.12-10.25-6.46-10.25-4.09,0-6.6,2.83-9.59,8.49v34h-4V1006c0-6.77-2.07-10.25-6.41-10.25-4.09,0-6.7,2.83-9.64,8.49v34h-4.15Z" transform="translate(0 0)"/><path d="M457.27,1015.72c0-14.72,10.82-23.74,22.63-23.74,12.34,0,20.18,7.94,20.18,20.88a21.16,21.16,0,0,1-.24,3.47H459.36v-3.55H498l-1.76,1.68c0-12.79-6.66-18.9-16.33-18.9-9.42,0-18.39,7.35-18.39,20,0,13.08,9.08,20.19,19.77,20.19a25.77,25.77,0,0,0,15.15-4.87l1.72,3.16a29.38,29.38,0,0,1-17.12,5.31C468,1039.37,457.27,1030.54,457.27,1015.72Z" transform="translate(0 0)"/><path d="M521.8,993.11h3.54l.48,11.15H526C530.87,997,538.22,992,547.23,992a19.68,19.68,0,0,1,9.09,1.88l-1.17,3.73a21.28,21.28,0,0,0-8.53-1.64c-7.54,0-14.37,3.82-20.65,14.09v28.2H521.8Z" transform="translate(0 0)"/></g><g id="card_logo_right" data-name="card logo right"><polygon class="cls-7" points="530 445 488 501 474 483 461 459 448 459 428.6 468.7 428.5 468.5 390.93 444.77 401 434 395 425 404 398 392 371 370 362 355 362 345.21 366.64 355 350 395 333 416 341 425 342 438 353 463 374 484 394 496 415 488 430 503 445 530 445"/><polygon class="cls-8" points="390.93 444.77 428.5 468.5 428.6 468.7 428 469 283 650 261.5 649.5 246.5 638.5 239.5 625.5 245 601 390.93 444.77"/><line class="cls-9" x1="428" y1="469" x2="283" y2="650"/><polyline class="cls-9" points="401 434 390.93 444.77 245 601"/><polyline class="cls-9" points="283 650 261.5 649.5 246.5 638.5 239.5 625.5 245 601"/><polyline class="cls-9" points="428.5 468.5 390.93 444.77 390.5 444.5"/></g></g></svg>