<svg xmlns="http://www.w3.org/2000/svg" viewBox="0 0 801 1300"><defs><style>.cls-1{isolation:isolate;}.cls-2{mix-blend-mode:color;}.cls-3{fill:#ff9c71;}.cls-3,.cls-4{stroke:#000;stroke-miterlimit:10;}.cls-4,.cls-6{fill:#e8ead3;}.cls-5{fill:#3535ef;}.cls-7{fill:#b8b8b8;}.cls-8{fill:#efefef;}</style></defs><g class="cls-1"><g id="Background" class="cls-2"><rect class="cls-3" x="0.5" y="0.5" width="800" height="1299"/></g><g id="Card_type" data-name="Card type"><rect class="cls-4" x="188.5" y="38.5" width="412" height="113"/><path class="cls-5" d="M207.58,66h14.27c19,0,28,12,28,30.75S240.85,128,222,128H207.58Zm13.84,58.25c16.68,0,23.91-11.35,23.91-27.5s-7.23-27.08-23.91-27.08h-9.5v54.58Z" transform="translate(0 0)"/><path class="cls-5" d="M262.13,105.45c0-14.72,10.81-23.74,22.62-23.74,12.34,0,20.19,7.94,20.19,20.88a22.32,22.32,0,0,1-.24,3.47H264.22v-3.55H302.9l-1.77,1.68c0-12.79-6.66-18.9-16.33-18.9-9.41,0-18.39,7.35-18.39,20,0,13.07,9.08,20.19,19.78,20.19a25.67,25.67,0,0,0,15.14-4.88l1.73,3.16a29.36,29.36,0,0,1-17.13,5.32C272.89,129.1,262.13,120.26,262.13,105.45Z" transform="translate(0 0)"/><path class="cls-5" d="M322.16,83.24l13.59-.4h24.89v3.62H322.16Zm13.54-5.83c0-11.37,5.56-18.18,16.92-18.18A28.65,28.65,0,0,1,365.23,62l-1.31,3.23a22.83,22.83,0,0,0-11.1-2.37c-9.47,0-13.11,5.77-13.11,14.2V128h-4Z" transform="translate(0 0)"/><path class="cls-5" d="M374.93,105.45c0-14.72,10.81-23.74,22.62-23.74,12.34,0,20.18,7.94,20.18,20.88a21.16,21.16,0,0,1-.24,3.47H377v-3.55H415.7l-1.77,1.68c0-12.79-6.66-18.9-16.33-18.9-9.42,0-18.39,7.35-18.39,20,0,13.07,9.08,20.19,19.78,20.19a25.7,25.7,0,0,0,15.14-4.88l1.72,3.16a29.31,29.31,0,0,1-17.12,5.32C385.69,129.1,374.93,120.26,374.93,105.45Z" transform="translate(0 0)"/><path class="cls-5" d="M434,82.84h3.51L438,91.5h.37c5.21-5.6,10.54-9.79,17.82-9.79,10.95,0,16.2,5.91,16.2,18.15V128h-4.17V100.41c0-10.08-3.76-15-12.7-15-6.41,0-10.82,3.35-17.32,10.17V128H434Z" transform="translate(0 0)"/><path class="cls-5" d="M488.21,122l2.2-3c5,3.89,11,6.61,20.45,6.61,9.22,0,13.93-4.15,13.93-8.9,0-4.09-1.58-7.36-15.9-10.24-11.46-2.3-18-6-18-12.66s5.53-12,17.62-12a31.68,31.68,0,0,1,17.33,5.55l-2.25,3a25.56,25.56,0,0,0-15.39-5c-9.83,0-13,4-13,8.22,0,4.77,4.64,7.15,14.86,9.26,15.61,3.29,19.07,6.91,19.07,13.62s-6.76,12.74-18.66,12.74A38.53,38.53,0,0,1,488.21,122Z" transform="translate(0 0)"/><path class="cls-5" d="M544.12,105.45c0-14.72,10.82-23.74,22.63-23.74,12.34,0,20.18,7.94,20.18,20.88a21.16,21.16,0,0,1-.24,3.47H546.21v-3.55h38.68l-1.76,1.68c0-12.79-6.66-18.9-16.33-18.9-9.42,0-18.39,7.35-18.39,20,0,13.07,9.07,20.19,19.77,20.19a25.7,25.7,0,0,0,15.15-4.88l1.72,3.16a29.31,29.31,0,0,1-17.12,5.32C554.89,129.1,544.12,120.26,544.12,105.45Z" transform="translate(0 0)"/><text/></g><g id="card_text" data-name="card text"><rect class="cls-6" x="43" y="839" width="722" height="419"/><path d="M242.26,940.31H248l10.84,29.05,3.83,10.79h.37l3.67-10.79,11-29.05h5.75v61.93h-4.23V960c0-4.44.39-10.45.56-14.69h-.28l-3.41,10.6-11.64,29.86h-3.38l-11.52-29.86-3.64-10.6h-.19c.22,4.24.63,10.25.63,14.69v42.26h-4.11Z" transform="translate(0 0)"/><path d="M322.8,960.74H300.21v-3.63H327v45.13H322.8Zm-3.31-19.1a4.43,4.43,0,1,1,4.42,4.51A4.29,4.29,0,0,1,319.49,941.64Z" transform="translate(0 0)"/><path d="M362.81,957.11h3.54l.48,11.15H367C371.88,961,379.22,956,388.23,956a19.66,19.66,0,0,1,9.09,1.88l-1.17,3.73a21.24,21.24,0,0,0-8.52-1.64c-7.55,0-14.38,3.82-20.65,14.09v28.2h-4.17Z" transform="translate(0 0)"/><path d="M419.2,957.11h3.55l.47,11.15h.19C428.27,961,435.62,956,444.63,956a19.68,19.68,0,0,1,9.09,1.88l-1.17,3.73A21.24,21.24,0,0,0,444,960c-7.55,0-14.38,3.82-20.65,14.09v28.2H419.2Z" transform="translate(0 0)"/><path d="M466.59,979.77c0-15.12,10.05-23.79,21.87-23.79s21.88,8.67,21.88,23.79c0,14.93-10,23.6-21.88,23.6S466.59,994.7,466.59,979.77Zm39.38,0c0-11.9-7.33-20.11-17.51-20.11S471,967.87,471,979.77s7.33,19.92,17.51,19.92S506,991.64,506,979.77Z" transform="translate(0 0)"/><path d="M532,957.11h3.54l.48,11.15h.19C541.07,961,548.42,956,557.43,956a19.68,19.68,0,0,1,9.09,1.88l-1.17,3.73a21.28,21.28,0,0,0-8.53-1.64c-7.54,0-14.37,3.82-20.64,14.09v28.2H532Z" transform="translate(0 0)"/><path d="M242.37,1109l2.2-3c5,3.9,11,6.61,20.45,6.61,9.21,0,13.93-4.15,13.93-8.89,0-4.1-1.58-7.36-15.9-10.24-11.46-2.31-18-6-18-12.67,0-6.51,5.53-12,17.62-12a31.71,31.71,0,0,1,17.33,5.55l-2.26,3a25.54,25.54,0,0,0-15.39-5c-9.83,0-13,4-13,8.22,0,4.77,4.63,7.15,14.85,9.26,15.62,3.29,19.08,6.91,19.08,13.62s-6.76,12.74-18.66,12.74A38.58,38.58,0,0,1,242.37,1109Z" transform="translate(0 0)"/><path d="M301,1047.43h4.17V1067l-.26,11.83h.21c5.36-5.89,10.86-10.09,18-10.09,10.95,0,16.2,5.91,16.2,18.15V1115h-4.17v-27.56c0-10.08-3.76-14.94-12.69-14.94-6.41,0-10.83,3.34-17.33,10.16V1115H301Z" transform="translate(0 0)"/><path d="M379.19,1073.54H356.61v-3.63h26.76V1115h-4.18Zm-3.3-19.1a4.43,4.43,0,1,1,4.42,4.51A4.29,4.29,0,0,1,375.89,1054.44Z" transform="translate(0 0)"/><path d="M411.08,1092.52c0-14.72,10.81-23.74,22.62-23.74,12.34,0,20.18,7.94,20.18,20.88a22.31,22.31,0,0,1-.23,3.47H413.17v-3.55h38.68l-1.77,1.68c0-12.79-6.66-18.9-16.33-18.9-9.41,0-18.39,7.35-18.39,20,0,13.08,9.08,20.19,19.78,20.19a25.74,25.74,0,0,0,15.14-4.87l1.72,3.16a29.38,29.38,0,0,1-17.12,5.31C421.84,1116.17,411.08,1107.33,411.08,1092.52Z" transform="translate(0 0)"/><path d="M485.71,1101.43v-50.37H468.59v-3.63h21.3V1102c0,7.12,3.43,10.49,9.84,10.49a21.18,21.18,0,0,0,9.31-2.34l1.36,3.23a23.47,23.47,0,0,1-11.27,2.79C490.59,1116.17,485.71,1111.69,485.71,1101.43Z" transform="translate(0 0)"/><path d="M523,1092.57c0-14.58,10-23.79,21.22-23.79,5.66,0,10.3,2.37,14.82,6.38h.19L559,1066v-18.61h4.17V1115h-3.51l-.46-6.7H559c-4,4.13-9.76,7.83-16.11,7.83C531,1116.17,523,1107.8,523,1092.57Zm36,11.62v-25.07c-5.09-4.81-9.77-6.63-14.47-6.63-9.54,0-17.16,8.73-17.16,20,0,12,6,19.93,16.11,19.93C548.72,1112.47,554,1109.53,559,1104.19Z" transform="translate(0 0)"/></g><g id="card_logo_right" data-name="card logo right"><path class="cls-7" d="M672,359.5V447l-11,37-10,37-10,39-19,37-21,43-28,41-35,38-38,29-43,33-31,19-21.75,14.83L382.5,800l-31-19-43-33-38-29-35-38-28-41-21-43-19-37-10-39-10-37-11-37V359.5l-6-69H156l34-9,36-6,36-7,42-14,45-13,51-23,.19-.42L451,241l45,13,42,14,36,7,36,6,34,9h32l-3.5,69.5ZM270.5,404c0-25.13-16.12-45.5-36-45.5s-36,20.37-36,45.5,16.12,45.5,36,45.5S270.5,429.13,270.5,404Z" transform="translate(0 0)"/><ellipse class="cls-7" cx="234.5" cy="404" rx="36" ry="45.5"/><rect class="cls-8" x="441.32" y="250.83" width="41" height="540.72" transform="translate(322.47 -161.08) rotate(30)"/><rect class="cls-8" x="305.15" y="736.52" width="49" height="26" transform="translate(572.82 -32.35) rotate(41.02)"/><rect class="cls-8" x="572" y="286" width="40" height="19"/></g></g></svg>