<svg xmlns="http://www.w3.org/2000/svg" viewBox="0 0 801 1300">
  <defs>
    <style>
      .cls-1 {
        isolation: isolate;
      }

      .cls-2 {
        mix-blend-mode: color;
      }

      .cls-3 {
        fill: #ff9c71;
      }

      .cls-3, .cls-4, .cls-8 {
        stroke: #000;
        stroke-miterlimit: 10;
      }

      .cls-4, .cls-6 {
        fill: #e8ead3;
      }

      .cls-5 {
        fill: #3535ef;
      }

      .cls-7 {
        fill: #5c2100;
      }

      .cls-8 {
        fill: none;
        stroke-width: 15px;
      }

      .cls-9 {
        fill: #a94711;
      }
    </style>
  </defs>
  <g class="cls-1">
    <g id="Background" class="cls-2">
      <rect class="cls-3" x="0.5" y="0.5" width="800" height="1299"/>
    </g>
    <g id="Card_type" data-name="Card type">
      <rect class="cls-4" x="188.5" y="38.5" width="412" height="113"/>
      <g>
        <path class="cls-5" d="M207.58,66h14.27c19,0,28,12,28,30.75S240.85,128,222,128H207.58Zm13.84,58.25c16.68,0,23.91-11.35,23.91-27.5s-7.23-27.08-23.91-27.08h-9.5v54.58Z" transform="translate(0 0)"/>
        <path class="cls-5" d="M262.13,105.45c0-14.72,10.81-23.74,22.62-23.74,12.34,0,20.19,7.94,20.19,20.88a22.32,22.32,0,0,1-.24,3.47H264.22v-3.55H302.9l-1.77,1.68c0-12.79-6.66-18.9-16.33-18.9-9.41,0-18.39,7.35-18.39,20,0,13.07,9.08,20.19,19.78,20.19a25.67,25.67,0,0,0,15.14-4.88l1.73,3.16a29.36,29.36,0,0,1-17.13,5.32C272.89,129.1,262.13,120.26,262.13,105.45Z" transform="translate(0 0)"/>
        <path class="cls-5" d="M322.16,83.24l13.59-.4h24.89v3.62H322.16Zm13.54-5.83c0-11.37,5.56-18.18,16.92-18.18A28.65,28.65,0,0,1,365.23,62l-1.31,3.23a22.83,22.83,0,0,0-11.1-2.37c-9.47,0-13.11,5.77-13.11,14.2V128h-4Z" transform="translate(0 0)"/>
        <path class="cls-5" d="M374.93,105.45c0-14.72,10.81-23.74,22.62-23.74,12.34,0,20.18,7.94,20.18,20.88a21.16,21.16,0,0,1-.24,3.47H377v-3.55H415.7l-1.77,1.68c0-12.79-6.66-18.9-16.33-18.9-9.42,0-18.39,7.35-18.39,20,0,13.07,9.08,20.19,19.78,20.19a25.7,25.7,0,0,0,15.14-4.88l1.72,3.16a29.31,29.31,0,0,1-17.12,5.32C385.69,129.1,374.93,120.26,374.93,105.45Z" transform="translate(0 0)"/>
        <path class="cls-5" d="M434,82.84h3.51L438,91.5h.37c5.21-5.6,10.54-9.79,17.82-9.79,10.95,0,16.2,5.91,16.2,18.15V128h-4.17V100.41c0-10.08-3.76-15-12.7-15-6.41,0-10.82,3.35-17.32,10.17V128H434Z" transform="translate(0 0)"/>
        <path class="cls-5" d="M488.21,122l2.2-3c5,3.89,11,6.61,20.45,6.61,9.22,0,13.93-4.15,13.93-8.9,0-4.09-1.58-7.36-15.9-10.24-11.46-2.3-18-6-18-12.66s5.53-12,17.62-12a31.68,31.68,0,0,1,17.33,5.55l-2.25,3a25.56,25.56,0,0,0-15.39-5c-9.83,0-13,4-13,8.22,0,4.77,4.64,7.15,14.86,9.26,15.61,3.29,19.07,6.91,19.07,13.62s-6.76,12.74-18.66,12.74A38.53,38.53,0,0,1,488.21,122Z" transform="translate(0 0)"/>
        <path class="cls-5" d="M544.12,105.45c0-14.72,10.82-23.74,22.63-23.74,12.34,0,20.18,7.94,20.18,20.88a21.16,21.16,0,0,1-.24,3.47H546.21v-3.55h38.68l-1.76,1.68c0-12.79-6.66-18.9-16.33-18.9-9.42,0-18.39,7.35-18.39,20,0,13.07,9.07,20.19,19.77,20.19a25.7,25.7,0,0,0,15.15-4.88l1.72,3.16a29.31,29.31,0,0,1-17.12,5.32C554.89,129.1,544.12,120.26,544.12,105.45Z" transform="translate(0 0)"/>
      </g>
      <text/>    </g>
    <g id="card_text" data-name="card text">
      <rect class="cls-6" x="43" y="839" width="722" height="419"/>
      <g>
        <path d="M207.33,911.31h4.61l24.12,43.79,6.61,12.23h.18c-.14-6-.55-12-.55-18V911.31h4.1v61.93h-4.61l-24.12-43.79-6.61-12.23h-.19c.15,6,.56,11.64.56,17.62v38.4h-4.1Z" transform="translate(0 0)"/>
        <path d="M261.39,950.77c0-15.12,10.05-23.79,21.87-23.79s21.88,8.67,21.88,23.79c0,14.93-10.05,23.6-21.88,23.6S261.39,965.7,261.39,950.77Zm39.39,0c0-11.9-7.34-20.11-17.52-20.11s-17.51,8.21-17.51,20.11,7.33,19.92,17.51,19.92S300.78,962.64,300.78,950.77Z" transform="translate(0 0)"/>
        <path d="M326.81,928.11h3.54l.48,11.15H331C335.88,932,343.22,927,352.23,927a19.66,19.66,0,0,1,9.09,1.88l-1.17,3.73a21.24,21.24,0,0,0-8.52-1.64c-7.55,0-14.38,3.82-20.65,14.09v28.2h-4.17Z" transform="translate(0 0)"/>
        <path d="M374.82,928.11h3.47l.45,6.15h.19c2.62-4.43,5.37-7.28,10.43-7.28s7.74,2.63,9,8c3.25-5.16,6-8,11.06-8,6.25,0,9.81,4.5,9.81,13.55v32.71h-4.15V941c0-6.77-2.12-10.25-6.46-10.25-4.09,0-6.6,2.83-9.59,8.49v34h-4V941c0-6.77-2.07-10.25-6.41-10.25-4.08,0-6.7,2.83-9.64,8.49v34h-4.15Z" transform="translate(0 0)"/>
        <path d="M432.88,962c0-10.1,10.13-14.88,34.62-17-.08-7.44-3.09-14.35-13.43-14.35-6.81,0-13.39,3.51-17.07,6.14l-1.94-3.07c3.6-2.6,11.45-6.72,19.5-6.72,12.09,0,17.11,7.77,17.11,17.43v28.83h-3.54l-.46-6.75h-.21c-5.19,4.15-12.18,7.88-18.84,7.88C440.54,974.37,432.88,970.47,432.88,962Zm34.62.6V948.16c-23,2.05-30.34,6.39-30.34,13.63,0,6.47,6.07,9,12.16,9C455.1,970.74,461.14,968,467.5,962.61Z" transform="translate(0 0)"/>
        <path d="M506.11,959.63V909.26H489v-3.63h21.3V960.2c0,7.12,3.43,10.49,9.84,10.49a21.18,21.18,0,0,0,9.31-2.34l1.35,3.23a23.4,23.4,0,0,1-11.26,2.79C511,974.37,506.11,969.89,506.11,959.63Z" transform="translate(0 0)"/>
        <path d="M206.37,1080l2.2-3c5,3.9,11,6.61,20.45,6.61,9.21,0,13.93-4.15,13.93-8.89,0-4.1-1.58-7.36-15.9-10.24-11.46-2.31-18-6-18-12.67,0-6.51,5.53-12,17.62-12a31.71,31.71,0,0,1,17.33,5.55l-2.26,3a25.54,25.54,0,0,0-15.39-5c-9.83,0-13,4-13,8.22,0,4.77,4.63,7.15,14.85,9.26,15.62,3.29,19.08,6.91,19.08,13.62s-6.76,12.74-18.66,12.74A38.58,38.58,0,0,1,206.37,1080Z" transform="translate(0 0)"/>
        <path d="M265,1018.43h4.17V1038l-.26,11.83h.21c5.36-5.89,10.86-10.09,18-10.09,10.95,0,16.2,5.91,16.2,18.15V1086h-4.17v-27.56c0-10.08-3.76-14.94-12.69-14.94-6.41,0-10.83,3.34-17.33,10.16V1086H265Z" transform="translate(0 0)"/>
        <path d="M343.19,1044.54H320.61v-3.63h26.76V1086h-4.18Zm-3.3-19.1a4.43,4.43,0,1,1,4.42,4.51A4.29,4.29,0,0,1,339.89,1025.44Z" transform="translate(0 0)"/>
        <path d="M375.08,1063.52c0-14.72,10.81-23.74,22.62-23.74,12.34,0,20.18,7.94,20.18,20.88a22.31,22.31,0,0,1-.23,3.47H377.17v-3.55h38.68l-1.77,1.68c0-12.79-6.66-18.9-16.33-18.9-9.41,0-18.39,7.35-18.39,20,0,13.08,9.08,20.19,19.78,20.19a25.74,25.74,0,0,0,15.14-4.87l1.72,3.16a29.38,29.38,0,0,1-17.12,5.31C385.84,1087.17,375.08,1078.33,375.08,1063.52Z" transform="translate(0 0)"/>
        <path d="M449.71,1072.43v-50.37H432.59v-3.63h21.3V1073c0,7.12,3.43,10.49,9.84,10.49a21.18,21.18,0,0,0,9.31-2.34l1.36,3.23a23.47,23.47,0,0,1-11.27,2.79C454.59,1087.17,449.71,1082.69,449.71,1072.43Z" transform="translate(0 0)"/>
        <path d="M487,1063.57c0-14.58,10-23.79,21.22-23.79,5.66,0,10.3,2.37,14.82,6.38h.19L523,1037v-18.61h4.17V1086h-3.51l-.46-6.7H523c-4,4.13-9.76,7.83-16.11,7.83C495,1087.17,487,1078.8,487,1063.57Zm36,11.62v-25.07c-5.09-4.81-9.77-6.63-14.47-6.63-9.54,0-17.16,8.73-17.16,20,0,12,6,19.93,16.11,19.93C512.72,1083.47,518,1080.53,523,1075.19Z" transform="translate(0 0)"/>
      </g>
    </g>
    <g id="card_logo_right" data-name="card logo right">
      <g>
        <g>
          <path class="cls-7" d="M191,281.48l36-6,36-7,42-14,45-13,51-23,.19-.42L452,241l45,13,42,14,36,7,36,6,34,9h32l-3.5,69.5H673V447l-11,37-10,37-10,39-19,37-21,43-28,41-35,38-38,29-43,33-31,19-21.75,14.83L383.5,800l-31-19-43-33-38-29-35-38-28-41-21-43-19-37-10-39-10-37-11-37v-87.5l-6-69H157ZM271.5,404c0-25.13-16.12-45.5-36-45.5s-36,20.37-36,45.5,16.11,45.5,36,45.5S271.5,429.11,271.5,404Z" transform="translate(0 0)"/>
          <ellipse class="cls-7" cx="235.5" cy="403.98" rx="36" ry="45.5"/>
        </g>
        <g>
          <line class="cls-8" x1="673.5" y1="359.48" x2="677" y2="289.98"/>
          <polyline class="cls-8" points="405 814.98 405.25 814.81 427 799.98 458 780.98 501 747.98 539 718.98 574 680.98 602 639.98 623 596.98 642 559.98 652 520.98 662 483.98 673 446.98 673 417.98 673 391.98 673 359.48 673 358.98"/>
          <polyline class="cls-8" points="677 289.98 645 289.98 611 280.98 575 274.98 539 267.98 497 253.98 452 240.98 401.19 218.06 401 217.98"/>
          <polyline class="cls-8" points="405.5 814.98 405.25 814.81 383.5 799.98 352.5 780.98 309.5 747.98 271.5 718.98 236.5 680.98 208.5 639.98 187.5 596.98 168.5 559.98 158.5 520.98 148.5 483.98 137.5 446.98 137.5 417.98 137.5 391.98 137.5 359.48 137.5 358.98"/>
          <line class="cls-8" x1="137.5" y1="359.48" x2="131.5" y2="290.48"/>
          <polyline class="cls-8" points="125 290.48 131.5 290.48 157 290.48 191 281.48 227 275.48 263 268.48 305 254.48 350 241.48 401 218.48"/>
        </g>
      </g>
      <g id="inner">
        <g>
          <path class="cls-9" d="M590.4,406.6v61.25l-7.7,25.9-7,25.9-7,27.3-13.3,25.9L540.7,603l-19.6,28.7-24.5,26.6L470,678.55l-30.1,23.1L418.2,715,403,725.33,387.75,715l-21.7-13.3L336,678.55l-26.6-20.3-24.5-26.6L265.25,603l-14.7-30.1L237.25,547l-7-27.3-7-25.9-7.7-25.9V406.6l-4.2-48.3H229.2L253,352l25.2-4.2,25.2-4.9,29.4-9.8,31.5-9.1L400,307.9l.13-.29,35.57,16,31.5,9.1,29.4,9.8,25.2,4.9,25.2,4.2,23.8,6.3h22.4l-2.45,48.65Zm-281,31.15c0-17.59-11.28-31.85-25.2-31.85S259,420.16,259,437.75s11.28,31.85,25.2,31.85S309.35,455.34,309.35,437.75Z" transform="translate(0 0)"/>
          <ellipse class="cls-9" cx="284.15" cy="437.75" rx="25.2" ry="31.85"/>
        </g>
      </g>
      <path d="M271.81,353.71c2.66,28.85-.85,57.76-5.57,86.2s-10.66,56.75-13.1,85.51a251,251,0,0,0,.19,48.49c.21,1.9,3.21,1.92,3,0-3.15-28.77.05-57.69,4.66-86.12s10.64-56.77,13.36-85.53a261.62,261.62,0,0,0,.46-48.55c-.17-1.91-3.17-1.93-3,0Z" transform="translate(0 0)"/>
      <path d="M313.3,344.86c1,37.88-2.76,75.67-6,113.36l-9.6,112.69-5.38,63.24c-.17,1.92,2.83,1.91,3,0q4.81-56.64,9.64-113.26c3.2-37.55,6.76-75.09,9.43-112.69,1.49-21.07,2.43-42.21,1.87-63.34-.05-1.93-3.05-1.93-3,0Z" transform="translate(0 0)"/>
      <path d="M345.77,328.65c12.38,43,8.19,88.68,6.18,132.76q-3.21,69.87-6.4,139.74l-3.61,78.65c-.08,1.93,2.92,1.92,3,0q3.22-70.23,6.44-140.45l3.21-70.22c1-22.67,2.45-45.36,2.56-68.06.11-24.62-1.65-49.45-8.49-73.21a1.5,1.5,0,0,0-2.89.79Z" transform="translate(0 0)"/>
      <path d="M431.69,326.68Q435.34,400,437,473.33t1.31,146.74q-.19,41.17-1,82.35c0,1.93,3,1.93,3,0q1.47-73.36.94-146.74T438.16,409q-1.43-41.15-3.47-82.28c-.1-1.92-3.1-1.93-3,0Z" transform="translate(0 0)"/>
      <path d="M475.92,338.61c10.53,15.84,14.7,34.68,16.37,53.39.83,9.38,1.09,18.8,1.24,28.21q.25,16.86.29,33.72.06,33.78-.81,67.55-.86,33.6-2.64,67.17t-4.5,67.4l-.69,8.41c-.16,1.93,2.84,1.92,3,0q2.83-33.81,4.75-67.7t2.88-67.82q1-34.08,1-68.19,0-16.89-.2-33.77c-.12-9.93-.25-19.87-.92-29.78-1.27-18.61-4.45-37.58-13.55-54.11-1.13-2-2.35-4-3.64-6-1.07-1.6-3.67-.1-2.59,1.51Z" transform="translate(0 0)"/>
      <path d="M545.8,357,542.37,452,539,546.39l-1.92,53c-.07,1.93,2.93,1.92,3,0l3.44-94.94L546.88,410l1.92-53c.07-1.93-2.93-1.93-3,0Z" transform="translate(0 0)"/>
    </g>
  </g>
</svg>
