<svg xmlns="http://www.w3.org/2000/svg" viewBox="0 0 801 1300"><defs><style>.cls-1{isolation:isolate;}.cls-2{mix-blend-mode:color;}.cls-3{fill:#ff9c71;}.cls-3,.cls-4{stroke:#000;stroke-miterlimit:10;}.cls-4,.cls-5{fill:#e8ead3;}.cls-6{fill:#fe5a1d;}.cls-7{fill:#f93;}</style></defs><g class="cls-1"><g id="Background" class="cls-2"><rect class="cls-3" x="0.5" y="0.5" width="800" height="1299"/></g><g id="Card_type" data-name="Card type"><rect class="cls-4" x="188.5" y="38.5" width="412" height="113"/><path d="M270.7,119.77l2.79-3a26,26,0,0,0,19.14,8.36c10,0,16.22-5.06,16.22-12.35,0-7.81-5.48-10.24-12-13l-9.41-4.22C281.65,93.2,274,89.35,274,80.17c0-9,8.05-15.26,18.91-15.26A25.46,25.46,0,0,1,311,72.32l-2.49,2.88a21.62,21.62,0,0,0-15.75-6.35c-8.65,0-14.47,4.34-14.47,11.05,0,7.23,6.69,9.93,11.61,11.93l9.34,4.2c7.4,3.08,14,6.92,14,16.38s-8.14,16.69-20.71,16.69A29,29,0,0,1,270.7,119.77Z" transform="translate(0 0)"/><path d="M341.06,111.09V86.46H327.4V83.24l13.73-.4.56-14.94h3.54V82.84h24v3.62h-24v24.93c0,8.8,2.52,14,12.59,14a31.21,31.21,0,0,0,12-2.34l1.14,3.2a35,35,0,0,1-13.74,2.8C344.83,129.1,341.06,121.83,341.06,111.09Z" transform="translate(0 0)"/><path d="M382.64,105.5c0-15.12,10.05-23.79,21.87-23.79s21.88,8.67,21.88,23.79c0,14.92-10.05,23.6-21.88,23.6S382.64,120.42,382.64,105.5Zm39.38,0c0-11.9-7.33-20.11-17.51-20.11S387,93.6,387,105.5s7.33,19.92,17.51,19.92S422,117.37,422,105.5Z" transform="translate(0 0)"/><path d="M442.62,82.84h3.51l.46,8.66H447c5.21-5.6,10.54-9.79,17.82-9.79,11,0,16.2,5.91,16.2,18.15V128h-4.17V100.41c0-10.08-3.76-15-12.69-15-6.41,0-10.83,3.35-17.33,10.17V128h-4.17Z" transform="translate(0 0)"/><path d="M496.32,105.45c0-14.72,10.82-23.74,22.63-23.74,12.34,0,20.18,7.94,20.18,20.88a21.16,21.16,0,0,1-.24,3.47H498.41v-3.55h38.68l-1.76,1.68c0-12.79-6.66-18.9-16.33-18.9-9.42,0-18.39,7.35-18.39,20,0,13.07,9.08,20.19,19.77,20.19a25.7,25.7,0,0,0,15.15-4.88l1.72,3.16a29.31,29.31,0,0,1-17.12,5.32C507.09,129.1,496.32,120.26,496.32,105.45Z" transform="translate(0 0)"/></g><g id="card_text" data-name="card text"><rect class="cls-5" x="43" y="839" width="722" height="419"/><path d="M68.73,1031.06c0-19.65,9.63-31.88,23.13-31.88S115,1011.41,115,1031.06s-9.63,32.31-23.14,32.31S68.73,1050.79,68.73,1031.06Zm41.72,0c0-17.22-7.5-27.94-18.59-27.94s-18.58,10.72-18.58,27.94,7.5,28.37,18.58,28.37S110.45,1048.36,110.45,1031.06Z" transform="translate(0 0)"/><path d="M135.41,1017.11H139l.48,11.15h.18c4.87-7.22,12.22-12.28,21.22-12.28a19.66,19.66,0,0,1,9.09,1.88l-1.17,3.73a21.24,21.24,0,0,0-8.52-1.64c-7.55,0-14.38,3.82-20.65,14.09v28.2h-4.17Z" transform="translate(0 0)"/><path d="M185.08,1051c0-10.1,10.13-14.88,34.62-17-.08-7.44-3.09-14.35-13.43-14.35-6.81,0-13.39,3.51-17.07,6.14l-1.94-3.07c3.6-2.6,11.45-6.72,19.51-6.72,12.09,0,17.1,7.77,17.1,17.43v28.83h-3.54l-.45-6.75h-.22c-5.18,4.15-12.18,7.88-18.84,7.88C192.75,1063.37,185.08,1059.47,185.08,1051Zm34.62.6v-14.45c-23,2-30.34,6.39-30.34,13.63,0,6.47,6.07,9,12.16,9C207.3,1059.74,213.34,1057,219.7,1051.61Z" transform="translate(0 0)"/><path d="M242.77,1017.11h3.52l.45,8.66h.37c5.21-5.59,10.54-9.79,17.82-9.79,10.95,0,16.2,5.91,16.2,18.15v28.11H277v-27.56c0-10.08-3.76-14.94-12.69-14.94-6.41,0-10.83,3.34-17.33,10.16v32.34h-4.17Z" transform="translate(0 0)"/><path d="M297.13,1070.88c0-3.53,2.76-7.6,7.65-10.63v-.37a8,8,0,0,1-4.7-7.25c0-2.85,1.91-6.07,5.45-8.49v-.37a14.84,14.84,0,0,1-5.36-11.71c0-9.28,7.59-16.08,16.79-16.08a15.46,15.46,0,0,1,6.22,1.13H342v3.63H328.38a16.15,16.15,0,0,1,5.29,11.4c0,9.23-7.46,15.76-16.71,15.76a19.32,19.32,0,0,1-8.53-2.1c-2.67,1.62-4.39,3.86-4.39,6.29,0,4.33,4.09,6.29,10.38,6.29h11.2c11.48,0,16.43,2.87,16.43,10.17,0,7.8-9.25,15.43-23.87,15.43C304.15,1084,297.13,1078.76,297.13,1070.88Zm40.66-1.86c0-5.08-3.88-6.71-11.8-6.71H315.28a25.18,25.18,0,0,1-6.88-.82c-5.42,2.9-7.27,6.21-7.27,9.46,0,5.48,5.51,9.58,16.79,9.58C330.32,1080.53,337.79,1074.68,337.79,1069Zm-8.25-37A12.58,12.58,0,1,0,317,1044.58,12.39,12.39,0,0,0,329.54,1032.06Z" transform="translate(0 0)"/><path d="M352.88,1039.72c0-14.72,10.81-23.74,22.62-23.74,12.34,0,20.18,7.94,20.18,20.88a21.16,21.16,0,0,1-.24,3.47H355v-3.55h38.69l-1.77,1.68c0-12.79-6.66-18.9-16.33-18.9-9.42,0-18.39,7.35-18.39,20,0,13.08,9.08,20.19,19.78,20.19a25.74,25.74,0,0,0,15.14-4.87l1.72,3.16a29.38,29.38,0,0,1-17.12,5.31C363.64,1063.37,352.88,1054.54,352.88,1039.72Z" transform="translate(0 0)"/><path d="M465.65,1054.05l2.78-3a26,26,0,0,0,19.14,8.37c10,0,16.23-5.07,16.23-12.35,0-7.82-5.48-10.24-12-13l-9.41-4.22c-5.76-2.38-13.46-6.22-13.46-15.41,0-9,8.05-15.26,18.91-15.26a25.53,25.53,0,0,1,18.17,7.41l-2.49,2.88a21.64,21.64,0,0,0-15.75-6.35c-8.65,0-14.47,4.35-14.47,11.06,0,7.22,6.69,9.93,11.61,11.93l9.33,4.19c7.41,3.08,14,6.92,14,16.38s-8.13,16.69-20.71,16.69A29,29,0,0,1,465.65,1054.05Z" transform="translate(0 0)"/><path d="M536,1045.37v-24.63H522.35v-3.23l13.73-.4.55-14.94h3.55v14.94h24v3.63h-24v24.93c0,8.79,2.52,14,12.58,14a31.36,31.36,0,0,0,12-2.34l1.15,3.2a35,35,0,0,1-13.74,2.79C539.78,1063.37,536,1056.1,536,1045.37Z" transform="translate(0 0)"/><path d="M577.58,1039.77c0-15.12,10-23.79,21.88-23.79s21.87,8.67,21.87,23.79c0,14.93-10.05,23.6-21.87,23.6S577.58,1054.7,577.58,1039.77Zm39.39,0c0-11.9-7.33-20.11-17.51-20.11s-17.52,8.21-17.52,20.11,7.34,19.92,17.52,19.92S617,1051.64,617,1039.77Z" transform="translate(0 0)"/><path d="M637.56,1017.11h3.52l.45,8.66h.38c5.2-5.59,10.54-9.79,17.82-9.79,10.94,0,16.2,5.91,16.2,18.15v28.11h-4.18v-27.56c0-10.08-3.76-14.94-12.69-14.94-6.41,0-10.83,3.34-17.32,10.16v32.34h-4.18Z" transform="translate(0 0)"/><path d="M691.27,1039.72c0-14.72,10.82-23.74,22.63-23.74,12.33,0,20.18,7.94,20.18,20.88a21.16,21.16,0,0,1-.24,3.47H693.36v-3.55H732l-1.77,1.68c0-12.79-6.66-18.9-16.32-18.9-9.42,0-18.4,7.35-18.4,20,0,13.08,9.08,20.19,19.78,20.19a25.71,25.71,0,0,0,15.14-4.87l1.73,3.16a29.41,29.41,0,0,1-17.13,5.31C702,1063.37,691.27,1054.54,691.27,1039.72Z" transform="translate(0 0)"/></g><g id="card_logo_holes" data-name="card logo holes"><path class="cls-6" d="M499.33,350.49v0l-71.62-93.84-.2.15,19,91.72ZM400.68,178.72,558.5,385.5l-167,419-162-418ZM412.5,695.5l99-282-52,9Zm-76-339,52-107-103,104Zm41,341-51-282-50-4Z" transform="translate(0 0)"/><polygon class="cls-7" points="511.5 413.5 412.5 695.5 459.5 422.5 511.5 413.5"/><polygon class="cls-7" points="499.33 350.47 499.33 350.49 446.5 348.5 427.51 256.78 427.71 256.63 499.33 350.47"/><polygon class="cls-7" points="388.5 249.5 336.5 356.5 285.5 353.5 388.5 249.5"/><polygon class="cls-7" points="326.5 415.5 377.5 697.5 276.5 411.5 326.5 415.5"/></g></g></svg>