<svg xmlns="http://www.w3.org/2000/svg" viewBox="0 0 801 1300"><defs><style>.cls-1{isolation:isolate;}.cls-2{mix-blend-mode:color;}.cls-3,.cls-9{fill:#ff9c71;}.cls-3,.cls-4,.cls-8{stroke:#000;}.cls-10,.cls-19,.cls-3,.cls-4,.cls-8,.cls-9{stroke-miterlimit:10;}.cls-4,.cls-6{fill:#e8ead3;}.cls-5{fill:#a21200;}.cls-7{fill:#168e04;}.cls-8{fill:#fbd46d;}.cls-10,.cls-9{stroke:#e8ead3;}.cls-10{fill:#654062;}.cls-11{fill:#fe5a1d;}.cls-12{fill:#f93;}.cls-13{fill:#138808;}.cls-14{fill:#9dc209;}.cls-15{fill:#e3170d;}.cls-16{fill:#f70000;}.cls-17{fill:#273be2;}.cls-18{fill:#0b1a95;}.cls-19{fill:#d53800;stroke:#d53800;}</style></defs><g class="cls-1"><g id="Background" class="cls-2"><rect class="cls-3" x="0.5" y="0.5" width="800" height="1299"/></g><g id="Card_type" data-name="Card type"><rect class="cls-4" x="188.5" y="38.5" width="412" height="113"/><path class="cls-5" d="M248.53,66h4.37L274.7,128h-4.63L257.74,91.51c-2.51-7.34-4.71-13.83-6.86-21.38h-.38c-2.18,7.55-4.36,14-6.86,21.38L231.12,128h-4.39Zm-11.83,37h27.74v3.65H236.7Z" transform="translate(0 0)"/><path class="cls-5" d="M300.06,111.09V86.46H286.4V83.24l13.73-.4.56-14.94h3.54V82.84h24v3.62h-24v24.93c0,8.8,2.52,14,12.59,14a31.21,31.21,0,0,0,12-2.34l1.14,3.2a35,35,0,0,1-13.74,2.8C303.83,129.1,300.06,121.83,300.06,111.09Z" transform="translate(0 0)"/><path class="cls-5" d="M356.46,111.09V86.46H342.8V83.24l13.73-.4.56-14.94h3.54V82.84h24v3.62h-24v24.93c0,8.8,2.52,14,12.59,14a31.21,31.21,0,0,0,12-2.34l1.14,3.2a35,35,0,0,1-13.74,2.8C360.23,129.1,356.46,121.83,356.46,111.09Z" transform="translate(0 0)"/><path class="cls-5" d="M400.33,116.74c0-10.11,10.13-14.88,34.61-17-.07-7.43-3.08-14.34-13.42-14.34-6.81,0-13.39,3.51-17.08,6.14l-1.93-3.08c3.6-2.59,11.45-6.71,19.5-6.71,12.09,0,17.11,7.77,17.11,17.43V128h-3.54l-.46-6.75h-.21c-5.19,4.15-12.18,7.88-18.84,7.88C408,129.1,400.33,125.19,400.33,116.74Zm34.61.59V102.89c-23,2-30.33,6.38-30.33,13.63,0,6.47,6.07,9,12.16,9C422.55,125.47,428.59,122.68,434.94,117.33Z" transform="translate(0 0)"/><path class="cls-5" d="M456.32,105.5c0-15.12,11.1-23.79,24.58-23.79a22.18,22.18,0,0,1,16.22,6.88l-2.41,2.86c-3.83-3.61-8.19-6.06-13.74-6.06-12,0-20.29,8.21-20.29,20.11s8.1,19.92,20.24,19.92c6.12,0,11.16-2.74,15.2-6.49l2.17,2.89a25.16,25.16,0,0,1-17.52,7.28C466.76,129.1,456.32,120.42,456.32,105.5Z" transform="translate(0 0)"/><path class="cls-5" d="M516.09,60.36h4.17V110h.38l29-27.18h5.17l-34.53,32.31V128h-4.17ZM532.5,101.8l2.79-2.88L557.78,128H553Z" transform="translate(0 0)"/><text/></g><g id="card_text" data-name="card text"><rect class="cls-6" x="43" y="839" width="722" height="419"/><path d="M244.56,890.31h16.83c13.83,0,22.09,4.54,22.09,17.25,0,12.17-8.28,18.05-22.09,18.05h-12.5v26.63h-4.33ZM260.31,922c12.63,0,18.69-4.22,18.69-14.4,0-10.34-6.08-13.6-18.69-13.6H248.89v28Z" transform="translate(0 0)"/><path d="M321.59,910.74H299v-3.63h26.76v45.13h-4.18Zm-3.3-19.1a4.42,4.42,0,1,1,4.42,4.51A4.29,4.29,0,0,1,318.29,891.64Z" transform="translate(0 0)"/><path d="M354.47,929.77c0-15.12,11.1-23.79,24.58-23.79a22.22,22.22,0,0,1,16.23,6.88l-2.42,2.86c-3.83-3.61-8.19-6.06-13.73-6.06-12,0-20.3,8.21-20.3,20.11s8.1,19.92,20.25,19.92c6.11,0,11.16-2.74,15.19-6.49l2.18,2.89a25.21,25.21,0,0,1-17.53,7.28C364.91,953.37,354.47,944.7,354.47,929.77Z" transform="translate(0 0)"/><path d="M414.24,884.63h4.18v49.66h.37l29-27.18h5.17l-34.52,32.31v12.82h-4.18Zm16.42,41.45,2.78-2.89,22.49,29h-4.81Z" transform="translate(0 0)"/><path d="M524.08,941c0-10.1,10.13-14.88,34.61-17-.07-7.44-3.08-14.35-13.42-14.35-6.81,0-13.39,3.51-17.08,6.14l-1.94-3.07c3.61-2.6,11.45-6.72,19.51-6.72,12.09,0,17.11,7.77,17.11,17.43v28.83h-3.55l-.45-6.75h-.21c-5.19,4.15-12.18,7.88-18.84,7.88C531.74,953.37,524.08,949.47,524.08,941Zm34.61.6V927.16c-23,2.05-30.33,6.39-30.33,13.63,0,6.47,6.07,9,12.15,9C546.3,949.74,552.33,947,558.69,941.61Z" transform="translate(0 0)"/><path d="M130.57,997.43h4.18V1017l-.27,11.83h.21c5.36-5.89,10.86-10.09,18-10.09,11,0,16.21,5.91,16.21,18.15V1065h-4.18v-27.56c0-10.08-3.76-14.94-12.69-14.94-6.41,0-10.83,3.34-17.32,10.16V1065h-4.18Z" transform="translate(0 0)"/><path d="M185.68,1053.81c0-10.1,10.14-14.88,34.62-17-.08-7.44-3.09-14.35-13.43-14.35-6.81,0-13.39,3.51-17.07,6.14l-1.94-3.07c3.6-2.6,11.45-6.72,19.51-6.72,12.09,0,17.1,7.77,17.1,17.43V1065h-3.54l-.45-6.75h-.22c-5.18,4.15-12.17,7.88-18.84,7.88C193.35,1066.17,185.68,1062.27,185.68,1053.81Zm34.62.6V1040c-23,2-30.34,6.39-30.34,13.63,0,6.47,6.07,9,12.16,9C207.9,1062.54,213.94,1059.76,220.3,1054.41Z" transform="translate(0 0)"/><path d="M243.37,1019.91h3.52l.45,8.66h.38c5.2-5.59,10.53-9.79,17.81-9.79,11,0,16.2,5.91,16.2,18.15V1065h-4.17v-27.56c0-10.08-3.76-14.94-12.69-14.94-6.41,0-10.83,3.34-17.33,10.16V1065h-4.17Z" transform="translate(0 0)"/><path d="M296.19,1042.57c0-14.58,10-23.79,21.22-23.79,5.66,0,10.3,2.37,14.82,6.38h.19l-.24-9.12V997.43h4.17V1065h-3.51l-.45-6.7h-.22c-4,4.13-9.76,7.83-16.11,7.83C304.22,1066.17,296.19,1057.8,296.19,1042.57Zm36,11.62v-25.07c-5.09-4.81-9.77-6.63-14.47-6.63-9.54,0-17.16,8.73-17.16,20,0,12,6,19.93,16.11,19.93C321.92,1062.47,327.18,1059.53,332.18,1054.19Z" transform="translate(0 0)"/><path d="M410.87,1042.57c0-15.12,11.1-23.79,24.58-23.79a22.18,22.18,0,0,1,16.22,6.88l-2.41,2.86c-3.83-3.61-8.19-6.06-13.73-6.06-12,0-20.3,8.21-20.3,20.11s8.1,19.92,20.24,19.92c6.12,0,11.16-2.74,15.2-6.49l2.18,2.89a25.21,25.21,0,0,1-17.53,7.28C421.31,1066.17,410.87,1057.5,410.87,1042.57Z" transform="translate(0 0)"/><path d="M467.68,1053.81c0-10.1,10.13-14.88,34.61-17-.07-7.44-3.08-14.35-13.42-14.35-6.81,0-13.39,3.51-17.08,6.14l-1.93-3.07c3.6-2.6,11.44-6.72,19.5-6.72,12.09,0,17.11,7.77,17.11,17.43V1065h-3.55l-.45-6.75h-.21c-5.19,4.15-12.18,7.88-18.84,7.88C475.34,1066.17,467.68,1062.27,467.68,1053.81Zm34.61.6V1040c-23,2-30.33,6.39-30.33,13.63,0,6.47,6.07,9,12.16,9C489.9,1062.54,495.93,1059.76,502.29,1054.41Z" transform="translate(0 0)"/><path d="M530.8,1019.91h3.54l.48,11.15H535c4.86-7.22,12.21-12.28,21.22-12.28a19.68,19.68,0,0,1,9.09,1.88l-1.17,3.73a21.28,21.28,0,0,0-8.53-1.64c-7.54,0-14.37,3.82-20.65,14.09V1065H530.8Z" transform="translate(0 0)"/><path d="M578.18,1042.57c0-14.58,10-23.79,21.23-23.79,5.66,0,10.3,2.37,14.82,6.38h.19l-.24-9.12V997.43h4.17V1065h-3.52l-.45-6.7h-.21c-4,4.13-9.76,7.83-16.11,7.83C586.22,1066.17,578.18,1057.8,578.18,1042.57Zm36,11.62v-25.07c-5.1-4.81-9.77-6.63-14.47-6.63-9.54,0-17.17,8.73-17.17,20,0,12,6,19.93,16.12,19.93C603.92,1062.47,609.18,1059.53,614.18,1054.19Z" transform="translate(0 0)"/></g><g id="card_logo_right" data-name="card logo right"><rect class="cls-7" x="339" y="440" width="22" height="108"/><rect class="cls-7" x="314" y="488" width="19" height="62" transform="translate(-272.24 380.76) rotate(-45)"/><rect class="cls-7" x="368.23" y="488.36" width="19" height="62" transform="translate(277.58 1153.7) rotate(-135)"/><rect class="cls-8" x="251.5" y="206.09" width="144" height="233.82"/><ellipse class="cls-9" cx="322.06" cy="314.63" rx="35.46" ry="34.56"/><ellipse class="cls-10" cx="321.98" cy="314.56" rx="27.79" ry="22.56"/><path class="cls-11" d="M326.61,241.91h0l1.79,5.13,5,.11h0Zm-2.56-4.35L339,249.11l-15.81,23.42-15.33-23.36Zm1.12,28.88,9.37-15.76-4.93.5ZM318,247.49l4.92-6-9.74,5.81Zm3.88,19.06L317,250.79l-4.74-.22Z" transform="translate(0 0)"/><polygon class="cls-12" points="334.54 250.68 325.17 266.44 329.62 251.18 334.54 250.68"/><polygon class="cls-12" points="333.38 247.16 333.38 247.16 328.38 247.04 326.59 241.92 326.61 241.91 333.38 247.16"/><polygon class="cls-12" points="322.89 241.51 317.97 247.49 313.15 247.32 322.89 241.51"/><polygon class="cls-12" points="317.03 250.79 321.85 266.55 312.29 250.57 317.03 250.79"/><path class="cls-13" d="M381.71,302h0l1.8,4.92,5,.1h0Zm-2.58-4.17,15,11.08-15.9,22.44L362.84,309Zm1.13,27.68,9.42-15.1-4.95.48ZM373,307.38l5-5.73-9.8,5.57Zm3.9,18.27-4.85-15.11-4.76-.21Z" transform="translate(0 0)"/><polygon class="cls-14" points="389.68 310.44 380.26 325.54 384.73 310.92 389.68 310.44"/><polygon class="cls-14" points="388.52 307.06 388.52 307.06 383.49 306.96 381.69 302.04 381.7 302.04 388.52 307.06"/><polygon class="cls-14" points="377.97 301.65 373.02 307.38 368.17 307.22 377.97 301.65"/><polygon class="cls-14" points="372.07 310.55 376.92 325.65 367.31 310.33 372.07 310.55"/><path class="cls-15" d="M278.38,305h0l-6.59-5.46h0l1.74,5.33Zm-9.07-10,14.51,12-15.35,24.36-14.89-24.31ZM270.4,325l9.1-16.4-4.78.53Zm-7-19.71,4.78-6.22-9.47,6.05Zm3.77,19.83-4.69-16.4-4.59-.23Z" transform="translate(0 0)"/><polygon class="cls-16" points="279.5 308.64 270.4 325.04 274.72 309.17 279.5 308.64"/><polygon class="cls-16" points="278.38 304.98 278.38 304.98 273.52 304.87 271.78 299.53 271.79 299.52 278.38 304.98"/><polygon class="cls-16" points="268.19 299.11 263.41 305.33 258.72 305.15 268.19 299.11"/><polygon class="cls-16" points="262.49 308.76 267.18 325.16 257.89 308.53 262.49 308.76"/><path class="cls-17" d="M333.44,366.66h0l-6.82-5.38h0l1.8,5.26Zm-9.39-9.84,15,11.85-15.9,24-15.42-23.95Zm1.13,29.61,9.42-16.16-5,.52ZM317.94,367l4.95-6.13-9.8,5.95Zm3.91,19.53L317,370.39l-4.76-.23Z" transform="translate(0 0)"/><polygon class="cls-18" points="334.6 370.27 325.18 386.43 329.65 370.79 334.6 370.27"/><polygon class="cls-18" points="333.44 366.66 333.44 366.66 328.41 366.55 326.61 361.29 326.63 361.28 333.44 366.66"/><polygon class="cls-18" points="322.89 360.88 317.94 367 313.09 366.83 322.89 360.88"/><polygon class="cls-18" points="316.99 370.38 321.85 386.54 312.23 370.16 316.99 370.38"/><rect class="cls-8" x="242.45" y="578.67" width="144" height="233.82"/><ellipse class="cls-9" cx="313.01" cy="687.21" rx="35.46" ry="34.56"/><ellipse class="cls-10" cx="312.93" cy="687.14" rx="27.79" ry="22.56"/><path class="cls-11" d="M324.34,619.73h0l-6.78-5.24h0l1.8,5.13Zm-9.34-9.6,14.94,11.56-15.81,23.42L298.8,621.74ZM316.12,639l9.37-15.77-4.92.51Zm-7.19-18.95,4.92-6-9.75,5.81Zm3.88,19.06L308,623.37l-4.73-.23Z" transform="translate(0 0)"/><polygon class="cls-12" points="325.49 623.25 316.12 639.02 320.57 623.76 325.49 623.25"/><polygon class="cls-12" points="324.34 619.73 324.34 619.73 319.34 619.62 317.54 614.49 317.56 614.49 324.34 619.73"/><polygon class="cls-12" points="313.85 614.09 308.93 620.07 304.1 619.9 313.85 614.09"/><polygon class="cls-12" points="307.98 623.37 312.81 639.13 303.25 623.14 307.98 623.37"/><path class="cls-13" d="M372.66,674.61h0l1.81,4.91,5,.11h0Zm-2.57-4.17,15,11.07L369.21,704l-15.42-22.39Zm1.12,27.68L380.64,683l-4.95.49ZM364,680l4.95-5.73-9.81,5.57Zm3.9,18.27L363,683.12l-4.76-.21Z" transform="translate(0 0)"/><polygon class="cls-14" points="380.63 683.01 371.21 698.12 375.69 683.5 380.63 683.01"/><polygon class="cls-14" points="379.48 679.64 379.48 679.64 374.45 679.53 372.64 674.62 372.66 674.61 379.48 679.64"/><polygon class="cls-14" points="368.93 674.23 363.98 679.96 359.12 679.8 368.93 674.23"/><polygon class="cls-14" points="363.02 683.12 367.88 698.23 358.26 682.91 363.02 683.12"/><path class="cls-15" d="M262.75,672.1h0l1.75,5.33,4.85.12h0Zm-2.49-4.53,14.51,12L259.42,704l-14.89-24.31Zm1.09,30,9.1-16.4-4.78.52Zm-7-19.71,4.77-6.23-9.46,6.05Zm3.76,19.82-4.68-16.39-4.6-.24Z" transform="translate(0 0)"/><polygon class="cls-16" points="270.45 681.22 261.35 697.62 265.67 681.74 270.45 681.22"/><polygon class="cls-16" points="269.33 677.55 269.33 677.56 264.48 677.44 262.73 672.11 262.75 672.1 269.33 677.55"/><polygon class="cls-16" points="259.14 671.68 254.37 677.91 249.68 677.73 259.14 671.68"/><polygon class="cls-16" points="253.45 681.34 258.13 697.74 248.85 681.1 253.45 681.34"/><path class="cls-17" d="M317.58,733.86h0l1.81,5.25,5,.12h0ZM315,729.4l15,11.84-15.9,24-15.42-24Zm1.12,29.6,9.43-16.15-4.95.51Zm-7.23-19.42,5-6.13-9.81,6Zm3.9,19.54L307.94,743l-4.76-.23Z" transform="translate(0 0)"/><polygon class="cls-18" points="325.56 742.85 316.13 759 320.61 743.36 325.56 742.85"/><polygon class="cls-18" points="324.4 739.24 324.4 739.24 319.37 739.12 317.56 733.87 317.58 733.86 324.4 739.24"/><polygon class="cls-18" points="313.85 733.45 308.9 739.58 304.04 739.41 313.85 733.45"/><polygon class="cls-18" points="307.94 742.96 312.8 759.12 303.19 742.73 307.94 742.96"/><rect class="cls-19" x="310.37" y="138.98" width="29.5" height="363.99" transform="translate(-131.74 323.9) rotate(-45)"/><rect class="cls-19" x="309.98" y="139.37" width="29.5" height="363.99" transform="translate(327.11 778.22) rotate(-135)"/></g></g></svg>