<svg xmlns="http://www.w3.org/2000/svg" viewBox="0 0 801 1300"><defs><style>.cls-1{isolation:isolate;}.cls-2{mix-blend-mode:color;}.cls-3{fill:#ff9c71;}.cls-3,.cls-4{stroke:#000;stroke-miterlimit:10;}.cls-4,.cls-6{fill:#e8ead3;}.cls-5{fill:#0a770a;}.cls-7{fill:#0e7c08;}</style></defs><g class="cls-1"><g id="Background" class="cls-2"><rect class="cls-3" x="0.5" y="0.5" width="800" height="1299"/></g><g id="Card_type" data-name="Card type"><rect class="cls-4" x="188.5" y="38.5" width="412" height="113"/><path class="cls-5" d="M248.53,66h4.37L274.7,128h-4.63L257.74,91.51c-2.51-7.34-4.71-13.83-6.86-21.38h-.38c-2.18,7.55-4.36,14-6.86,21.38L231.12,128h-4.39Zm-11.83,37h27.74v3.65H236.7Z" transform="translate(0 0)"/><path class="cls-5" d="M287.12,105.5c0-15.12,11.11-23.79,24.58-23.79a22.21,22.21,0,0,1,16.23,6.88l-2.42,2.86c-3.83-3.61-8.19-6.06-13.73-6.06-12,0-20.3,8.21-20.3,20.11s8.1,19.92,20.25,19.92c6.12,0,11.16-2.74,15.19-6.49l2.18,2.89a25.21,25.21,0,0,1-17.53,7.28C297.56,129.1,287.12,120.42,287.12,105.5Z" transform="translate(0 0)"/><path class="cls-5" d="M356.46,111.09V86.46H342.8V83.24l13.73-.4.56-14.94h3.54V82.84h24v3.62h-24v24.93c0,8.8,2.52,14,12.59,14a31.21,31.21,0,0,0,12-2.34l1.14,3.2a35,35,0,0,1-13.74,2.8C360.23,129.1,356.46,121.83,356.46,111.09Z" transform="translate(0 0)"/><path class="cls-5" d="M423.44,86.46H400.86V82.84h26.76V128h-4.18Zm-3.31-19.09a4.43,4.43,0,1,1,4.43,4.51A4.3,4.3,0,0,1,420.13,67.37Z" transform="translate(0 0)"/><path class="cls-5" d="M454.44,105.5c0-15.12,10-23.79,21.87-23.79s21.87,8.67,21.87,23.79c0,14.92-10,23.6-21.87,23.6S454.44,120.42,454.44,105.5Zm39.38,0c0-11.9-7.33-20.11-17.51-20.11S458.8,93.6,458.8,105.5s7.33,19.92,17.51,19.92S493.82,117.37,493.82,105.5Z" transform="translate(0 0)"/><path class="cls-5" d="M514.42,82.84h3.51l.45,8.66h.38c5.21-5.6,10.54-9.79,17.82-9.79,10.94,0,16.2,5.91,16.2,18.15V128h-4.17V100.41c0-10.08-3.76-15-12.7-15-6.41,0-10.83,3.35-17.32,10.17V128h-4.17Z" transform="translate(0 0)"/><text/></g><g id="card_text" data-name="card text"><rect class="cls-6" x="43" y="839" width="722" height="419"/><path d="M164.53,898.31H178.8c19,0,28,12,28,30.75s-9,31.18-27.93,31.18H164.53Zm13.84,58.25c16.68,0,23.91-11.35,23.91-27.5S195.05,902,178.37,902h-9.5v54.57Z" transform="translate(0 0)"/><path d="M227.2,915.11h3.55l.47,11.15h.19C236.27,919,243.62,914,252.63,914a19.68,19.68,0,0,1,9.09,1.88l-1.17,3.73A21.25,21.25,0,0,0,252,918c-7.54,0-14.37,3.82-20.64,14.09v28.2H227.2Z" transform="translate(0 0)"/><path d="M276.88,949c0-10.1,10.13-14.88,34.62-17-.08-7.44-3.09-14.35-13.43-14.35-6.81,0-13.39,3.51-17.07,6.14l-1.94-3.07c3.6-2.6,11.45-6.72,19.5-6.72,12.09,0,17.11,7.77,17.11,17.43v28.83h-3.54l-.46-6.75h-.21c-5.19,4.15-12.18,7.88-18.84,7.88C284.54,961.37,276.88,957.47,276.88,949Zm34.62.6V935.16c-23,2.05-30.34,6.39-30.34,13.63,0,6.47,6.07,9,12.16,9C299.1,957.74,305.14,955,311.5,949.61Z" transform="translate(0 0)"/><path d="M325.69,915.11h4.42l7.16,29.24c1,4.19,1.92,8,2.69,12h.37c.91-4,1.94-7.89,3-12l7.21-28.47h5l7.16,28.47c1,4.19,2.12,8,3,12h.37c1-4,1.84-7.86,2.76-12l7.09-29.24H380l-11.42,45.13H363L356,933c-1-4-1.85-8.26-2.94-13h-.38c-1,4.73-1.78,9.11-2.94,13.13l-6.85,27.14h-5.59Z" transform="translate(0 0)"/><path d="M458.6,943.37V918.74H445v-3.23l13.73-.4.56-14.94h3.54v14.94h24v3.63h-24v24.93c0,8.79,2.52,14.05,12.59,14.05a31.35,31.35,0,0,0,12-2.34l1.15,3.2a35,35,0,0,1-13.74,2.79C462.38,961.37,458.6,954.1,458.6,943.37Z" transform="translate(0 0)"/><path d="M494.88,915.11h4.43l7.16,29.24c1,4.19,1.91,8,2.68,12h.38c.91-4,1.94-7.89,3-12l7.22-28.47h5l7.16,28.47c1,4.19,2.12,8,3,12h.37c1-4,1.84-7.86,2.75-12l7.1-29.24h4.13l-11.42,45.13h-5.58l-7-27.28c-1-4-1.85-8.26-2.94-13h-.38c-1,4.73-1.78,9.11-2.94,13.13l-6.86,27.14h-5.58Z" transform="translate(0 0)"/><path d="M582,918.74H559.4v-3.63h26.76v45.13H582Zm-3.31-19.1a4.43,4.43,0,1,1,4.43,4.51A4.3,4.3,0,0,1,578.68,899.64Z" transform="translate(0 0)"/><path d="M614.86,937.77c0-15.12,11.11-23.79,24.58-23.79a22.19,22.19,0,0,1,16.23,6.88l-2.42,2.86c-3.82-3.61-8.18-6.06-13.73-6.06-12,0-20.3,8.21-20.3,20.11s8.11,19.92,20.25,19.92c6.12,0,11.16-2.74,15.2-6.49l2.17,2.89a25.16,25.16,0,0,1-17.52,7.28C625.3,961.37,614.86,952.7,614.86,937.77Z" transform="translate(0 0)"/><path d="M670.27,937.72C670.27,923,681.09,914,692.9,914c12.33,0,20.18,7.94,20.18,20.88a21.16,21.16,0,0,1-.24,3.47H672.36v-3.55H711l-1.77,1.68c0-12.79-6.66-18.9-16.32-18.9-9.42,0-18.4,7.35-18.4,20,0,13.08,9.08,20.19,19.78,20.19a25.71,25.71,0,0,0,15.14-4.87l1.73,3.16a29.41,29.41,0,0,1-17.13,5.31C681,961.37,670.27,952.54,670.27,937.72Z" transform="translate(0 0)"/><path d="M333.28,1061.81c0-10.1,10.13-14.88,34.61-17-.07-7.44-3.08-14.35-13.42-14.35-6.81,0-13.39,3.51-17.08,6.14l-1.93-3.07c3.6-2.6,11.45-6.72,19.5-6.72,12.09,0,17.11,7.77,17.11,17.43V1073h-3.54l-.46-6.75h-.21c-5.19,4.15-12.18,7.88-18.84,7.88C340.94,1074.17,333.28,1070.27,333.28,1061.81Zm34.61.6V1048c-23,2-30.33,6.39-30.33,13.63,0,6.47,6.07,9,12.16,9C355.5,1070.54,361.54,1067.76,367.89,1062.41Z" transform="translate(0 0)"/><path d="M391,1027.91h3.51l.46,8.66h.37c5.21-5.59,10.54-9.79,17.82-9.79,10.95,0,16.2,5.91,16.2,18.15V1073h-4.17v-27.56c0-10.08-3.76-14.94-12.7-14.94-6.41,0-10.82,3.34-17.32,10.16V1073H391Z" transform="translate(0 0)"/><path d="M443.79,1050.57c0-14.58,10-23.79,21.22-23.79,5.66,0,10.3,2.37,14.82,6.38H480l-.24-9.12v-18.61H484V1073h-3.51l-.46-6.7h-.21c-4,4.13-9.76,7.83-16.11,7.83C451.82,1074.17,443.79,1065.8,443.79,1050.57Zm36,11.62v-25.07c-5.1-4.81-9.77-6.63-14.47-6.63-9.54,0-17.16,8.73-17.16,20,0,12,6,19.93,16.11,19.93C469.52,1070.47,474.78,1067.53,479.78,1062.19Z" transform="translate(0 0)"/><path d="M165.37,1140.71h3.52l.45,6.51h.21c4.51-4.38,11-7.64,16.89-7.64,12.72,0,19.1,9.05,19.1,23,0,15.3-9.85,24.35-21.12,24.35-4.3,0-10.38-2.37-14.93-6.4h-.19l.24,9.19v16.51h-4.17Zm35.81,21.91c0-11.09-4.38-19.33-15.41-19.33-4.73,0-10.59,2.61-16.23,8.27v25.07c5.26,4.81,11.15,6.64,14.66,6.64C194.06,1183.27,201.18,1174.85,201.18,1162.62Z" transform="translate(0 0)"/><path d="M237.31,1172.23v-50.37H220.19v-3.63h21.3v54.57c0,7.12,3.43,10.49,9.84,10.49a21.18,21.18,0,0,0,9.31-2.34l1.36,3.23a23.46,23.46,0,0,1-11.26,2.79C242.19,1187,237.31,1182.49,237.31,1172.23Z" transform="translate(0 0)"/><path d="M276.88,1174.61c0-10.1,10.13-14.88,34.62-17-.08-7.44-3.09-14.35-13.43-14.35-6.81,0-13.39,3.51-17.07,6.14l-1.94-3.07c3.6-2.6,11.45-6.72,19.5-6.72,12.09,0,17.11,7.77,17.11,17.43v28.83h-3.54l-.46-6.75h-.21c-5.19,4.15-12.18,7.88-18.84,7.88C284.54,1187,276.88,1183.07,276.88,1174.61Zm34.62.6v-14.45c-23,2-30.34,6.39-30.34,13.63,0,6.47,6.07,8.95,12.16,8.95C299.1,1183.34,305.14,1180.56,311.5,1175.21Z" transform="translate(0 0)"/><path d="M331,1205.44l1.12-3.61a14.77,14.77,0,0,0,4.41.73c7,0,11.41-5.07,14.14-11.94l1.59-3.93-21.93-46h4.34l13.15,28.34c1.78,3.83,4,8.7,6.18,12.77h.38c1.8-4,3.72-8.91,5.3-12.77l11.71-28.34h4.1l-21.23,50.81c-2.7,7.52-8.32,14.86-17.86,14.86A15.78,15.78,0,0,1,331,1205.44Z" transform="translate(0 0)"/><path d="M458.6,1169v-24.63H445v-3.23l13.73-.4.56-14.94h3.54v14.94h24v3.63h-24v24.93c0,8.79,2.52,14,12.59,14a31.16,31.16,0,0,0,12-2.35l1.15,3.21a35,35,0,0,1-13.74,2.79C462.38,1187,458.6,1179.7,458.6,1169Z" transform="translate(0 0)"/><path d="M494.88,1140.71h4.43l7.16,29.24c1,4.19,1.91,8,2.68,12h.38c.91-4,1.94-7.89,3-12l7.22-28.48h5l7.16,28.48c1,4.19,2.12,8,3,12h.37c1-4,1.84-7.86,2.75-12l7.1-29.24h4.13l-11.42,45.13h-5.58l-7-27.28c-1-4-1.85-8.26-2.94-13h-.38c-1,4.73-1.78,9.11-2.94,13.13l-6.86,27.14h-5.58Z" transform="translate(0 0)"/><path d="M582,1144.34H559.4v-3.63h26.76v45.13H582Zm-3.31-19.1a4.43,4.43,0,1,1,4.43,4.51A4.3,4.3,0,0,1,578.68,1125.24Z" transform="translate(0 0)"/><path d="M614.86,1163.37c0-15.12,11.11-23.79,24.58-23.79a22.19,22.19,0,0,1,16.23,6.88l-2.42,2.86c-3.82-3.61-8.18-6.06-13.73-6.06-12,0-20.3,8.21-20.3,20.11s8.11,19.92,20.25,19.92c6.12,0,11.16-2.74,15.2-6.49l2.17,2.89a25.16,25.16,0,0,1-17.52,7.28C625.3,1187,614.86,1178.3,614.86,1163.37Z" transform="translate(0 0)"/><path d="M670.27,1163.32c0-14.72,10.82-23.74,22.63-23.74,12.33,0,20.18,7.94,20.18,20.88a21.16,21.16,0,0,1-.24,3.47H672.36v-3.55H711l-1.77,1.68c0-12.79-6.66-18.9-16.32-18.9-9.42,0-18.4,7.35-18.4,20,0,13.08,9.08,20.19,19.78,20.19a25.71,25.71,0,0,0,15.14-4.87l1.73,3.16a29.41,29.41,0,0,1-17.13,5.31C681,1187,670.27,1178.13,670.27,1163.32Z" transform="translate(0 0)"/><path class="cls-7" d="M259,434.37H171.76V416.8H259V321.66H278.5V416.8h87.28v17.57H278.5v95.14H259Z" transform="translate(0 0)"/><path class="cls-7" d="M448.94,568.18c111.58-100.8,166.25-155,166.25-209.2,0-37.55-22.49-66.78-74.42-66.78-31.07,0-58.71,16.74-79.44,39.31l-13.71-12.9c25-25.31,54.36-44.75,94.78-44.75,59,0,93.7,33.68,93.7,84.61,0,60.07-59.73,117.62-155.48,206.16,19.57-1.07,37.89-2,56.85-2H653v18.73h-204Z" transform="translate(0 0)"/></g></g></svg>