<svg xmlns="http://www.w3.org/2000/svg" viewBox="0 0 801 1300"><defs><style>.cls-1{isolation:isolate;}.cls-2{mix-blend-mode:color;}.cls-3,.cls-8{fill:#ff9c71;}.cls-3,.cls-4{stroke:#000;stroke-miterlimit:10;}.cls-4,.cls-6{fill:#e8ead3;}.cls-5{fill:#0a770a;}.cls-7{fill:#d53800;}</style></defs><g class="cls-1"><g id="Background" class="cls-2"><rect class="cls-3" x="0.5" y="0.5" width="800" height="1299"/></g><g id="Card_type" data-name="Card type"><rect class="cls-4" x="188.5" y="38.5" width="412" height="113"/><path class="cls-5" d="M248.53,66h4.37L274.7,128h-4.63L257.74,91.51c-2.51-7.34-4.71-13.83-6.86-21.38h-.38c-2.18,7.55-4.36,14-6.86,21.38L231.12,128h-4.39Zm-11.83,37h27.74v3.65H236.7Z" transform="translate(0 0)"/><path class="cls-5" d="M287.12,105.5c0-15.12,11.11-23.79,24.58-23.79a22.21,22.21,0,0,1,16.23,6.88l-2.42,2.86c-3.83-3.61-8.19-6.06-13.73-6.06-12,0-20.3,8.21-20.3,20.11s8.1,19.92,20.25,19.92c6.12,0,11.16-2.74,15.19-6.49l2.18,2.89a25.21,25.21,0,0,1-17.53,7.28C297.56,129.1,287.12,120.42,287.12,105.5Z" transform="translate(0 0)"/><path class="cls-5" d="M356.46,111.09V86.46H342.8V83.24l13.73-.4.56-14.94h3.54V82.84h24v3.62h-24v24.93c0,8.8,2.52,14,12.59,14a31.21,31.21,0,0,0,12-2.34l1.14,3.2a35,35,0,0,1-13.74,2.8C360.23,129.1,356.46,121.83,356.46,111.09Z" transform="translate(0 0)"/><path class="cls-5" d="M423.44,86.46H400.86V82.84h26.76V128h-4.18Zm-3.31-19.09a4.43,4.43,0,1,1,4.43,4.51A4.3,4.3,0,0,1,420.13,67.37Z" transform="translate(0 0)"/><path class="cls-5" d="M454.44,105.5c0-15.12,10-23.79,21.87-23.79s21.87,8.67,21.87,23.79c0,14.92-10,23.6-21.87,23.6S454.44,120.42,454.44,105.5Zm39.38,0c0-11.9-7.33-20.11-17.51-20.11S458.8,93.6,458.8,105.5s7.33,19.92,17.51,19.92S493.82,117.37,493.82,105.5Z" transform="translate(0 0)"/><path class="cls-5" d="M514.42,82.84h3.51l.45,8.66h.38c5.21-5.6,10.54-9.79,17.82-9.79,10.94,0,16.2,5.91,16.2,18.15V128h-4.17V100.41c0-10.08-3.76-15-12.7-15-6.41,0-10.83,3.35-17.32,10.17V128h-4.17Z" transform="translate(0 0)"/><text/></g><g id="card_text" data-name="card text"><rect class="cls-6" x="43" y="839" width="722" height="419"/><path d="M166.56,845.31h16.83c13.83,0,22.09,4.54,22.09,17.25,0,12.17-8.28,18.05-22.09,18.05h-12.5v26.63h-4.33ZM182.31,877c12.63,0,18.69-4.22,18.69-14.4,0-10.34-6.08-13.6-18.69-13.6H170.89v28Z" transform="translate(0 0)"/><path d="M227.2,862.11h3.55l.47,11.15h.19C236.27,866,243.62,861,252.63,861a19.68,19.68,0,0,1,9.09,1.88l-1.17,3.73A21.25,21.25,0,0,0,252,865c-7.54,0-14.37,3.82-20.64,14.09v28.2H227.2Z" transform="translate(0 0)"/><path d="M275.48,884.72C275.48,870,286.29,861,298.1,861c12.34,0,20.18,7.94,20.18,20.88a22.31,22.31,0,0,1-.23,3.47H277.57v-3.55h38.68l-1.77,1.68c0-12.79-6.66-18.9-16.33-18.9-9.41,0-18.39,7.35-18.39,20,0,13.08,9.08,20.19,19.78,20.19a25.74,25.74,0,0,0,15.14-4.87l1.72,3.16a29.38,29.38,0,0,1-17.12,5.31C286.24,908.37,275.48,899.54,275.48,884.72Z" transform="translate(0 0)"/><path d="M330.46,862.11h4.36l12.44,28.24c2,4.54,3.89,8.91,5.63,13h.37c1.74-4.08,3.45-8.45,5.46-13l12.45-28.24h4.09l-20.08,45.13h-4.43Z" transform="translate(0 0)"/><path d="M388.27,884.72C388.27,870,399.09,861,410.9,861c12.34,0,20.18,7.94,20.18,20.88a21.16,21.16,0,0,1-.24,3.47H390.36v-3.55H429l-1.76,1.68c0-12.79-6.66-18.9-16.33-18.9-9.42,0-18.39,7.35-18.39,20,0,13.08,9.08,20.19,19.77,20.19a25.77,25.77,0,0,0,15.15-4.87l1.72,3.16a29.38,29.38,0,0,1-17.12,5.31C399,908.37,388.27,899.54,388.27,884.72Z" transform="translate(0 0)"/><path d="M447.37,862.11h3.51l.45,8.66h.38c5.21-5.59,10.54-9.79,17.82-9.79,10.94,0,16.2,5.91,16.2,18.15v28.11h-4.17V879.68c0-10.08-3.76-14.94-12.7-14.94-6.41,0-10.82,3.34-17.32,10.16v32.34h-4.17Z" transform="translate(0 0)"/><path d="M515,890.37V865.74H501.35v-3.23l13.73-.4.55-14.94h3.55v14.94h24v3.63h-24v24.93c0,8.79,2.52,14.05,12.58,14.05a31.36,31.36,0,0,0,12-2.34l1.15,3.2a35,35,0,0,1-13.74,2.79C518.78,908.37,515,901.1,515,890.37Z" transform="translate(0 0)"/><path d="M615.27,896c0-10.1,10.14-14.88,34.62-17-.08-7.44-3.08-14.35-13.43-14.35-6.81,0-13.39,3.51-17.07,6.14l-1.94-3.07C621.06,865.1,628.9,861,637,861c12.09,0,17.1,7.77,17.1,17.43v28.83h-3.54l-.45-6.75h-.21c-5.19,4.15-12.18,7.88-18.85,7.88C622.94,908.37,615.27,904.47,615.27,896Zm34.62.6V882.16c-23,2.05-30.33,6.39-30.33,13.63,0,6.47,6.07,9,12.15,9C637.5,904.74,643.53,902,649.89,896.61Z" transform="translate(0 0)"/><path d="M673,862.11h3.52l.45,8.66h.38c5.2-5.59,10.53-9.79,17.81-9.79,11,0,16.21,5.91,16.21,18.15v28.11h-4.18V879.68c0-10.08-3.76-14.94-12.69-14.94-6.41,0-10.83,3.34-17.32,10.16v32.34H673Z" transform="translate(0 0)"/><path d="M161.79,997.57c0-15.12,10.05-23.79,21.87-23.79s21.88,8.67,21.88,23.79c0,14.93-10,23.6-21.88,23.6S161.79,1012.5,161.79,997.57Zm39.39,0c0-11.9-7.34-20.11-17.52-20.11s-17.51,8.21-17.51,20.11,7.33,19.92,17.51,19.92S201.18,1009.44,201.18,997.57Z" transform="translate(0 0)"/><path d="M221.77,974.91h3.52l.45,6.51H226c4.51-4.38,11-7.64,16.89-7.64,12.72,0,19.1,9.05,19.1,23,0,15.3-9.85,24.35-21.12,24.35-4.3,0-10.38-2.37-14.93-6.4h-.19l.24,9.19v16.51h-4.17Zm35.8,21.91c0-11.09-4.37-19.33-15.41-19.33-4.72,0-10.59,2.61-16.22,8.27v25.07c5.26,4.81,11.15,6.64,14.66,6.64C250.46,1017.47,257.57,1009.05,257.57,996.82Z" transform="translate(0 0)"/><path d="M278.17,974.91h3.52l.45,6.51h.21c4.5-4.38,11-7.64,16.89-7.64,12.72,0,19.1,9.05,19.1,23,0,15.3-9.85,24.35-21.12,24.35-4.3,0-10.38-2.37-14.93-6.4h-.19l.24,9.19v16.51h-4.17ZM314,996.82c0-11.09-4.37-19.33-15.41-19.33-4.72,0-10.59,2.61-16.22,8.27v25.07c5.26,4.81,11.15,6.64,14.66,6.64C306.86,1017.47,314,1009.05,314,996.82Z" transform="translate(0 0)"/><path d="M331,997.57c0-15.12,10-23.79,21.87-23.79s21.87,8.67,21.87,23.79c0,14.93-10,23.6-21.87,23.6S331,1012.5,331,997.57Zm39.38,0c0-11.9-7.33-20.11-17.51-20.11s-17.51,8.21-17.51,20.11,7.33,19.92,17.51,19.92S370.37,1009.44,370.37,997.57Z" transform="translate(0 0)"/><path d="M391,974.91h3.51l.46,8.66h.37c5.21-5.59,10.54-9.79,17.82-9.79,10.95,0,16.2,5.91,16.2,18.15V1020h-4.17V992.48c0-10.08-3.76-14.94-12.7-14.94-6.41,0-10.82,3.34-17.32,10.16V1020H391Z" transform="translate(0 0)"/><path d="M444.67,997.52c0-14.72,10.82-23.74,22.63-23.74,12.34,0,20.18,7.94,20.18,20.88a21.16,21.16,0,0,1-.24,3.47H446.76v-3.55h38.68l-1.76,1.68c0-12.79-6.66-18.9-16.33-18.9-9.42,0-18.39,7.35-18.39,20,0,13.08,9.08,20.19,19.77,20.19a25.77,25.77,0,0,0,15.15-4.87l1.72,3.16a29.38,29.38,0,0,1-17.12,5.31C455.44,1021.17,444.67,1012.33,444.67,997.52Z" transform="translate(0 0)"/><path d="M515,1003.17V978.54H501.35v-3.23l13.73-.4.55-14.94h3.55v14.94h24v3.63h-24v24.93c0,8.79,2.52,14,12.58,14a31.17,31.17,0,0,0,12-2.35l1.15,3.21a35,35,0,0,1-13.74,2.79C518.78,1021.17,515,1013.9,515,1003.17Z" transform="translate(0 0)"/><path d="M627.8,1003.17V978.54H614.15v-3.23l13.73-.4.55-14.94H632v14.94h24v3.63H632v24.93c0,8.79,2.53,14,12.59,14a31.17,31.17,0,0,0,12-2.35l1.15,3.21a35.07,35.07,0,0,1-13.74,2.79C631.58,1021.17,627.8,1013.9,627.8,1003.17Z" transform="translate(0 0)"/><path d="M669.38,997.57c0-15.12,10-23.79,21.87-23.79s21.88,8.67,21.88,23.79c0,14.93-10,23.6-21.88,23.6S669.38,1012.5,669.38,997.57Zm39.39,0c0-11.9-7.34-20.11-17.52-20.11s-17.51,8.21-17.51,20.11,7.34,19.92,17.51,19.92S708.77,1009.44,708.77,997.57Z" transform="translate(0 0)"/><path d="M165.37,1087.71h3.52l.45,6.51h.21c4.51-4.38,11-7.64,16.89-7.64,12.72,0,19.1,9.05,19.1,23,0,15.3-9.85,24.35-21.12,24.35-4.3,0-10.38-2.37-14.93-6.4h-.19l.24,9.19v16.51h-4.17Zm35.81,21.91c0-11.09-4.38-19.33-15.41-19.33-4.73,0-10.59,2.61-16.23,8.27v25.07c5.26,4.81,11.15,6.64,14.66,6.64C194.06,1130.27,201.18,1121.85,201.18,1109.62Z" transform="translate(0 0)"/><path d="M237.31,1119.23v-50.37H220.19v-3.63h21.3v54.57c0,7.12,3.43,10.49,9.84,10.49a21.18,21.18,0,0,0,9.31-2.34l1.36,3.23a23.46,23.46,0,0,1-11.26,2.79C242.19,1134,237.31,1129.49,237.31,1119.23Z" transform="translate(0 0)"/><path d="M276.88,1121.61c0-10.1,10.13-14.88,34.62-17-.08-7.44-3.09-14.35-13.43-14.35-6.81,0-13.39,3.51-17.07,6.14l-1.94-3.07c3.6-2.6,11.45-6.72,19.5-6.72,12.09,0,17.11,7.77,17.11,17.43v28.83h-3.54l-.46-6.75h-.21c-5.19,4.15-12.18,7.88-18.84,7.88C284.54,1134,276.88,1130.07,276.88,1121.61Zm34.62.6v-14.45c-23,2-30.34,6.39-30.34,13.63,0,6.47,6.07,8.95,12.16,8.95C299.1,1130.34,305.14,1127.56,311.5,1122.21Z" transform="translate(0 0)"/><path d="M331,1152.44l1.12-3.61a14.77,14.77,0,0,0,4.41.73c7,0,11.41-5.07,14.14-11.94l1.59-3.93-21.93-46h4.34l13.15,28.34c1.78,3.83,4,8.7,6.18,12.77h.38c1.8-4,3.72-8.91,5.3-12.77l11.71-28.34h4.1l-21.23,50.81c-2.7,7.52-8.32,14.86-17.86,14.86A15.78,15.78,0,0,1,331,1152.44Z" transform="translate(0 0)"/><path d="M447.37,1087.71h3.51l.45,8.66h.38c5.21-5.59,10.54-9.79,17.82-9.79,10.94,0,16.2,5.91,16.2,18.15v28.11h-4.17v-27.56c0-10.08-3.76-14.94-12.7-14.94-6.41,0-10.82,3.34-17.32,10.16v32.34h-4.17Z" transform="translate(0 0)"/><path d="M501.07,1110.32c0-14.72,10.82-23.74,22.63-23.74,12.34,0,20.18,7.94,20.18,20.88a21.16,21.16,0,0,1-.24,3.47H503.16v-3.55h38.68l-1.77,1.68c0-12.79-6.65-18.9-16.32-18.9-9.42,0-18.39,7.35-18.39,20,0,13.08,9.07,20.19,19.77,20.19a25.77,25.77,0,0,0,15.15-4.87l1.72,3.16a29.38,29.38,0,0,1-17.12,5.31C511.84,1134,501.07,1125.13,501.07,1110.32Z" transform="translate(0 0)"/><path d="M575.83,1109.43l-16.6-21.72H564l8.68,11.47c1.8,2.47,3.68,5.12,5.7,7.57h.37c2-2.45,4.12-5.27,5.93-7.73l8.41-11.31h4.57l-16.78,21.9,18.23,23.23h-4.81l-9.54-12.24c-2-2.53-4.25-5.71-6.43-8.34H578c-2.15,2.8-4.17,5.45-6.33,8.44l-9.29,12.14h-4.58Z" transform="translate(0 0)"/><path d="M627.8,1116v-24.63H614.15v-3.23l13.73-.4.55-14.94H632v14.94h24v3.63H632v24.93c0,8.79,2.53,14,12.59,14a31.17,31.17,0,0,0,12-2.35l1.15,3.21A35.07,35.07,0,0,1,644,1134C631.58,1134,627.8,1126.7,627.8,1116Z" transform="translate(0 0)"/><path d="M289.41,1228.77v-24.63H275.75v-3.23l13.73-.4.56-14.94h3.54v14.94h24v3.63h-24v24.93c0,8.79,2.52,14,12.59,14a31.4,31.4,0,0,0,12-2.34l1.14,3.2a35,35,0,0,1-13.74,2.79C293.18,1246.77,289.41,1239.5,289.41,1228.77Z" transform="translate(0 0)"/><path d="M332.79,1228.62v-28.11H337v27.56c0,10.06,3.76,14.94,12.72,14.94,6.36,0,11.1-3.19,17.27-10.21v-32.29h4.18v45.13h-3.54l-.46-8.74h-.37c-4.88,5.7-10.51,9.87-17.77,9.87C338,1246.77,332.79,1240.86,332.79,1228.62Z" transform="translate(0 0)"/><path d="M396.4,1200.51h3.54l.48,11.15h.19c4.86-7.22,12.21-12.28,21.22-12.28a19.68,19.68,0,0,1,9.09,1.88l-1.17,3.73a21.28,21.28,0,0,0-8.53-1.64c-7.54,0-14.37,3.82-20.64,14.09v28.2H396.4Z" transform="translate(0 0)"/><path d="M447.37,1200.51h3.51l.45,8.66h.38c5.21-5.59,10.54-9.79,17.82-9.79,10.94,0,16.2,5.91,16.2,18.15v28.11h-4.17v-27.56c0-10.08-3.76-14.94-12.7-14.94-6.41,0-10.82,3.34-17.32,10.16v32.34h-4.17Z" transform="translate(0 0)"/></g><g id="card_logo_right" data-name="card logo right"><ellipse class="cls-7" cx="405" cy="495" rx="318" ry="288"/><ellipse class="cls-8" cx="407" cy="494.5" rx="218" ry="192.5"/><rect class="cls-7" x="364.32" y="285.98" width="91" height="429.79" transform="translate(515.18 -137.66) rotate(48.66)"/><rect class="cls-7" x="434" y="443" width="13" height="25"/></g></g></svg>