<svg xmlns="http://www.w3.org/2000/svg" viewBox="0 0 801 1300"><defs><style>.cls-1{isolation:isolate;}.cls-2{mix-blend-mode:color;}.cls-3{fill:#ff9c71;}.cls-3,.cls-4{stroke:#000;stroke-miterlimit:10;}.cls-4,.cls-5{fill:#e8ead3;}.cls-6{fill:#f70000;}.cls-7{fill:#e3170d;}</style></defs><g class="cls-1"><g id="Background" class="cls-2"><rect class="cls-3" x="0.5" y="0.5" width="800" height="1299"/></g><g id="Card_type" data-name="Card type"><rect class="cls-4" x="188.5" y="38.5" width="412" height="113"/><path d="M270.7,119.77l2.79-3a26,26,0,0,0,19.14,8.36c10,0,16.22-5.06,16.22-12.35,0-7.81-5.48-10.24-12-13l-9.41-4.22C281.65,93.2,274,89.35,274,80.17c0-9,8.05-15.26,18.91-15.26A25.46,25.46,0,0,1,311,72.32l-2.49,2.88a21.62,21.62,0,0,0-15.75-6.35c-8.65,0-14.47,4.34-14.47,11.05,0,7.23,6.69,9.93,11.61,11.93l9.34,4.2c7.4,3.08,14,6.92,14,16.38s-8.14,16.69-20.71,16.69A29,29,0,0,1,270.7,119.77Z" transform="translate(0 0)"/><path d="M341.06,111.09V86.46H327.4V83.24l13.73-.4.56-14.94h3.54V82.84h24v3.62h-24v24.93c0,8.8,2.52,14,12.59,14a31.21,31.21,0,0,0,12-2.34l1.14,3.2a35,35,0,0,1-13.74,2.8C344.83,129.1,341.06,121.83,341.06,111.09Z" transform="translate(0 0)"/><path d="M382.64,105.5c0-15.12,10.05-23.79,21.87-23.79s21.88,8.67,21.88,23.79c0,14.92-10.05,23.6-21.88,23.6S382.64,120.42,382.64,105.5Zm39.38,0c0-11.9-7.33-20.11-17.51-20.11S387,93.6,387,105.5s7.33,19.92,17.51,19.92S422,117.37,422,105.5Z" transform="translate(0 0)"/><path d="M442.62,82.84h3.51l.46,8.66H447c5.21-5.6,10.54-9.79,17.82-9.79,11,0,16.2,5.91,16.2,18.15V128h-4.17V100.41c0-10.08-3.76-15-12.69-15-6.41,0-10.83,3.35-17.33,10.17V128h-4.17Z" transform="translate(0 0)"/><path d="M496.32,105.45c0-14.72,10.82-23.74,22.63-23.74,12.34,0,20.18,7.94,20.18,20.88a21.16,21.16,0,0,1-.24,3.47H498.41v-3.55h38.68l-1.76,1.68c0-12.79-6.66-18.9-16.33-18.9-9.42,0-18.39,7.35-18.39,20,0,13.07,9.08,20.19,19.77,20.19a25.7,25.7,0,0,0,15.15-4.88l1.72,3.16a29.31,29.31,0,0,1-17.12,5.32C507.09,129.1,496.32,120.26,496.32,105.45Z" transform="translate(0 0)"/></g><g id="card_text" data-name="card text"><rect class="cls-5" x="43" y="839" width="722" height="419"/><path d="M143.68,1000.31h17.7c12.29,0,20.38,4.51,20.38,16.36,0,11.29-8.09,17.14-20.38,17.14H148v28.43h-4.36Zm16.57,29.85c11,0,17-4.36,17-13.49,0-9.32-6.08-12.71-17-12.71H148v26.2Zm4.3,1.12,18.38,31h-5l-17.51-29.7Z" transform="translate(0 0)"/><path d="M196.28,1039.72c0-14.72,10.82-23.74,22.62-23.74,12.34,0,20.19,7.94,20.19,20.88a21.16,21.16,0,0,1-.24,3.47H198.37v-3.55h38.68l-1.77,1.68c0-12.79-6.66-18.9-16.32-18.9-9.42,0-18.4,7.35-18.4,20,0,13.08,9.08,20.19,19.78,20.19a25.71,25.71,0,0,0,15.14-4.87l1.73,3.16a29.41,29.41,0,0,1-17.13,5.31C207,1063.37,196.28,1054.54,196.28,1039.72Z" transform="translate(0 0)"/><path d="M251.79,1039.77c0-14.58,10-23.79,21.23-23.79,5.65,0,10.29,2.37,14.81,6.38H288l-.24-9.12V994.63H292v67.61h-3.52l-.45-6.7h-.22c-4,4.13-9.76,7.83-16.11,7.83C259.82,1063.37,251.79,1055,251.79,1039.77Zm36,11.62v-25.07c-5.09-4.81-9.77-6.63-14.47-6.63-9.54,0-17.16,8.73-17.16,20,0,12,6,19.93,16.11,19.93C277.53,1059.67,282.78,1056.73,287.78,1051.39Z" transform="translate(0 0)"/><path d="M365.45,1054.05l2.78-3a26,26,0,0,0,19.15,8.37c10,0,16.22-5.07,16.22-12.35,0-7.82-5.48-10.24-12-13l-9.4-4.22c-5.77-2.38-13.46-6.22-13.46-15.41,0-9,8.05-15.26,18.9-15.26a25.51,25.51,0,0,1,18.17,7.41l-2.49,2.88a21.64,21.64,0,0,0-15.75-6.35c-8.65,0-14.47,4.35-14.47,11.06,0,7.22,6.69,9.93,11.61,11.93l9.33,4.19c7.41,3.08,14,6.92,14,16.38s-8.13,16.69-20.71,16.69A29,29,0,0,1,365.45,1054.05Z" transform="translate(0 0)"/><path d="M435.8,1045.37v-24.63H422.15v-3.23l13.73-.4.56-14.94H440v14.94h24v3.63H440v24.93c0,8.79,2.52,14,12.59,14a31.31,31.31,0,0,0,12-2.34l1.15,3.2a35,35,0,0,1-13.74,2.79C439.58,1063.37,435.8,1056.1,435.8,1045.37Z" transform="translate(0 0)"/><path d="M477.39,1039.77c0-15.12,10-23.79,21.87-23.79s21.87,8.67,21.87,23.79c0,14.93-10,23.6-21.87,23.6S477.39,1054.7,477.39,1039.77Zm39.38,0c0-11.9-7.33-20.11-17.51-20.11s-17.51,8.21-17.51,20.11,7.33,19.92,17.51,19.92S516.77,1051.64,516.77,1039.77Z" transform="translate(0 0)"/><path d="M537.37,1017.11h3.51l.45,8.66h.38c5.21-5.59,10.54-9.79,17.82-9.79,10.94,0,16.2,5.91,16.2,18.15v28.11h-4.17v-27.56c0-10.08-3.76-14.94-12.7-14.94-6.41,0-10.82,3.34-17.32,10.16v32.34h-4.17Z" transform="translate(0 0)"/><path d="M591.07,1039.72c0-14.72,10.82-23.74,22.63-23.74,12.34,0,20.18,7.94,20.18,20.88a21.16,21.16,0,0,1-.24,3.47H593.16v-3.55h38.68l-1.77,1.68c0-12.79-6.65-18.9-16.32-18.9-9.42,0-18.39,7.35-18.39,20,0,13.08,9.07,20.19,19.77,20.19a25.77,25.77,0,0,0,15.15-4.87l1.72,3.16a29.38,29.38,0,0,1-17.12,5.31C601.84,1063.37,591.07,1054.54,591.07,1039.72Z" transform="translate(0 0)"/></g><g id="card_logo_holes" data-name="card logo holes"><polygon class="cls-6" points="293.5 418.5 344.5 700.5 243.5 414.5 293.5 418.5"/><polygon class="cls-6" points="355.5 252.5 303.5 359.5 252.5 356.5 355.5 252.5"/><polygon class="cls-6" points="466.33 353.47 466.33 353.49 413.5 351.5 394.51 259.78 394.71 259.63 466.33 353.47"/><polygon class="cls-6" points="478.5 416.5 379.5 698.5 426.5 425.5 478.5 416.5"/><path class="cls-7" d="M466.33,353.49v0l-71.62-93.84-.2.15,19,91.72ZM367.68,181.72,525.5,388.5l-167,419-162-418ZM379.5,698.5l99-282-52,9Zm-76-339,52-107-103,104Zm41,341-51-282-50-4Z" transform="translate(0 0)"/></g></g></svg>