<svg xmlns="http://www.w3.org/2000/svg" viewBox="0 0 801 1300"><defs><style>.cls-1{isolation:isolate;}.cls-2{mix-blend-mode:color;}.cls-3{fill:#ff9c71;}.cls-3,.cls-4{stroke:#000;stroke-miterlimit:10;}.cls-4,.cls-6{fill:#e8ead3;}.cls-5{fill:#0a770a;}.cls-7{fill:#0e7c08;}.cls-8{fill:#a9aa9a;}</style></defs><g class="cls-1"><g id="Background" class="cls-2"><rect class="cls-3" x="0.5" y="0.5" width="800" height="1299"/></g><g id="Card_type" data-name="Card type"><rect class="cls-4" x="188.5" y="38.5" width="412" height="113"/><path class="cls-5" d="M248.53,66h4.37L274.7,128h-4.63L257.74,91.51c-2.51-7.34-4.71-13.83-6.86-21.38h-.38c-2.18,7.55-4.36,14-6.86,21.38L231.12,128h-4.39Zm-11.83,37h27.74v3.65H236.7Z" transform="translate(0 0)"/><path class="cls-5" d="M287.12,105.5c0-15.12,11.11-23.79,24.58-23.79a22.21,22.21,0,0,1,16.23,6.88l-2.42,2.86c-3.83-3.61-8.19-6.06-13.73-6.06-12,0-20.3,8.21-20.3,20.11s8.1,19.92,20.25,19.92c6.12,0,11.16-2.74,15.19-6.49l2.18,2.89a25.21,25.21,0,0,1-17.53,7.28C297.56,129.1,287.12,120.42,287.12,105.5Z" transform="translate(0 0)"/><path class="cls-5" d="M356.46,111.09V86.46H342.8V83.24l13.73-.4.56-14.94h3.54V82.84h24v3.62h-24v24.93c0,8.8,2.52,14,12.59,14a31.21,31.21,0,0,0,12-2.34l1.14,3.2a35,35,0,0,1-13.74,2.8C360.23,129.1,356.46,121.83,356.46,111.09Z" transform="translate(0 0)"/><path class="cls-5" d="M423.44,86.46H400.86V82.84h26.76V128h-4.18Zm-3.31-19.09a4.43,4.43,0,1,1,4.43,4.51A4.3,4.3,0,0,1,420.13,67.37Z" transform="translate(0 0)"/><path class="cls-5" d="M454.44,105.5c0-15.12,10-23.79,21.87-23.79s21.87,8.67,21.87,23.79c0,14.92-10,23.6-21.87,23.6S454.44,120.42,454.44,105.5Zm39.38,0c0-11.9-7.33-20.11-17.51-20.11S458.8,93.6,458.8,105.5s7.33,19.92,17.51,19.92S493.82,117.37,493.82,105.5Z" transform="translate(0 0)"/><path class="cls-5" d="M514.42,82.84h3.51l.45,8.66h.38c5.21-5.6,10.54-9.79,17.82-9.79,10.94,0,16.2,5.91,16.2,18.15V128h-4.17V100.41c0-10.08-3.76-15-12.7-15-6.41,0-10.83,3.35-17.32,10.17V128h-4.17Z" transform="translate(0 0)"/><text/></g><g id="card_text" data-name="card text"><rect class="cls-6" x="43" y="839" width="722" height="419"/><path d="M158.48,845.31h17.7c12.29,0,20.38,4.51,20.38,16.36,0,11.29-8.09,17.14-20.38,17.14H162.84v28.43h-4.36Zm16.57,29.85c10.95,0,17-4.36,17-13.49,0-9.32-6.09-12.71-17-12.71H162.84v26.2Zm4.29,1.12,18.39,31h-5l-17.51-29.7Z" transform="translate(0 0)"/><path d="M211.08,884.72C211.08,870,221.89,861,233.7,861c12.34,0,20.18,7.94,20.18,20.88a22.31,22.31,0,0,1-.23,3.47H213.17v-3.55h38.68l-1.77,1.68c0-12.79-6.66-18.9-16.33-18.9-9.41,0-18.39,7.35-18.39,20,0,13.08,9.08,20.19,19.78,20.19a25.74,25.74,0,0,0,15.14-4.87l1.72,3.16a29.38,29.38,0,0,1-17.12,5.31C221.84,908.37,211.08,899.54,211.08,884.72Z" transform="translate(0 0)"/><path d="M268,901.23l2.21-3.05c5,3.9,11,6.61,20.45,6.61,9.21,0,13.93-4.15,13.93-8.89,0-4.1-1.58-7.36-15.91-10.24-11.46-2.31-18-6-18-12.67s5.52-12,17.61-12a31.66,31.66,0,0,1,17.33,5.55l-2.25,3a25.56,25.56,0,0,0-15.39-5c-9.83,0-13,4-13,8.22,0,4.77,4.63,7.15,14.85,9.26,15.61,3.29,19.07,6.91,19.07,13.62s-6.76,12.74-18.66,12.74A38.6,38.6,0,0,1,268,901.23Z" transform="translate(0 0)"/><path d="M337.8,890.37V865.74H324.15v-3.23l13.73-.4.56-14.94H342v14.94h24v3.63H342v24.93c0,8.79,2.52,14.05,12.59,14.05a31.31,31.31,0,0,0,12-2.34l1.15,3.2A35,35,0,0,1,354,908.37C341.58,908.37,337.8,901.1,337.8,890.37Z" transform="translate(0 0)"/><path d="M379.39,884.77c0-15.12,10-23.79,21.87-23.79s21.87,8.67,21.87,23.79c0,14.93-10,23.6-21.87,23.6S379.39,899.7,379.39,884.77Zm39.38,0c0-11.9-7.33-20.11-17.51-20.11s-17.51,8.21-17.51,20.11,7.33,19.92,17.51,19.92S418.77,896.64,418.77,884.77Z" transform="translate(0 0)"/><path d="M444.8,862.11h3.54l.48,11.15H449C453.87,866,461.22,861,470.23,861a19.68,19.68,0,0,1,9.09,1.88l-1.17,3.73a21.28,21.28,0,0,0-8.53-1.64c-7.54,0-14.37,3.82-20.65,14.09v28.2H444.8Z" transform="translate(0 0)"/><path d="M493.07,884.72C493.07,870,503.89,861,515.7,861c12.34,0,20.18,7.94,20.18,20.88a21.16,21.16,0,0,1-.24,3.47H495.16v-3.55h38.68l-1.77,1.68c0-12.79-6.65-18.9-16.32-18.9-9.42,0-18.39,7.35-18.39,20,0,13.08,9.07,20.19,19.77,20.19a25.77,25.77,0,0,0,15.15-4.87l1.72,3.16a29.38,29.38,0,0,1-17.12,5.31C503.84,908.37,493.07,899.54,493.07,884.72Z" transform="translate(0 0)"/><path d="M607.27,896c0-10.1,10.14-14.88,34.62-17-.08-7.44-3.08-14.35-13.43-14.35-6.81,0-13.39,3.51-17.07,6.14l-1.94-3.07C613.06,865.1,620.9,861,629,861c12.09,0,17.1,7.77,17.1,17.43v28.83h-3.54l-.45-6.75h-.21c-5.19,4.15-12.18,7.88-18.85,7.88C614.94,908.37,607.27,904.47,607.27,896Zm34.62.6V882.16c-23,2.05-30.33,6.39-30.33,13.63,0,6.47,6.07,9,12.15,9C629.5,904.74,635.53,902,641.89,896.61Z" transform="translate(0 0)"/><path d="M161.53,1015h-.22l-.47,5.07h-3.47V952.43h4.17V972l-.24,9.65h.22c4.54-4.7,11.06-7.91,16.89-7.91,12.73,0,19.13,9.05,19.13,23,0,15.33-9.85,24.38-20.93,24.38C172,1021.17,166,1018.75,161.53,1015Zm31.65-18.15c0-11.09-4.38-19.33-15.41-19.33-4.73,0-10.59,2.61-16.23,8.27v25.07c5.26,4.81,11.15,6.64,14.85,6.64C186.06,1017.47,193.18,1009.05,193.18,996.82Z" transform="translate(0 0)"/><path d="M219.2,974.91h3.55l.47,11.15h.19c4.86-7.22,12.21-12.28,21.22-12.28a19.68,19.68,0,0,1,9.09,1.88l-1.17,3.73a21.25,21.25,0,0,0-8.53-1.64c-7.54,0-14.37,3.82-20.64,14.09V1020H219.2Z" transform="translate(0 0)"/><path d="M266.59,997.57c0-15.12,10.05-23.79,21.87-23.79s21.88,8.67,21.88,23.79c0,14.93-10,23.6-21.88,23.6S266.59,1012.5,266.59,997.57Zm39.38,0c0-11.9-7.33-20.11-17.51-20.11S271,985.67,271,997.57s7.33,19.92,17.51,19.92S306,1009.44,306,997.57Z" transform="translate(0 0)"/><path d="M328.24,952.43h4.18v49.66h.37l29-27.18h5.17l-34.52,32.31V1020h-4.18Zm16.42,41.45,2.78-2.89,22.49,29h-4.81Z" transform="translate(0 0)"/><path d="M380.27,997.52c0-14.72,10.82-23.74,22.63-23.74,12.34,0,20.18,7.94,20.18,20.88a21.16,21.16,0,0,1-.24,3.47H382.36v-3.55H421l-1.76,1.68c0-12.79-6.66-18.9-16.33-18.9-9.42,0-18.39,7.35-18.39,20,0,13.08,9.08,20.19,19.77,20.19a25.77,25.77,0,0,0,15.15-4.87l1.72,3.16a29.38,29.38,0,0,1-17.12,5.31C391,1021.17,380.27,1012.33,380.27,997.52Z" transform="translate(0 0)"/><path d="M439.37,974.91h3.51l.45,8.66h.38c5.21-5.59,10.54-9.79,17.82-9.79,10.94,0,16.2,5.91,16.2,18.15V1020h-4.17V992.48c0-10.08-3.76-14.94-12.7-14.94-6.41,0-10.82,3.34-17.32,10.16V1020h-4.17Z" transform="translate(0 0)"/><path d="M548.58,997.57c0-15.12,10-23.79,21.88-23.79s21.87,8.67,21.87,23.79c0,14.93-10.05,23.6-21.87,23.6S548.58,1012.5,548.58,997.57Zm39.39,0c0-11.9-7.33-20.11-17.51-20.11s-17.52,8.21-17.52,20.11,7.34,19.92,17.52,19.92S588,1009.44,588,997.57Z" transform="translate(0 0)"/><path d="M614,974.91h3.54l.48,11.15h.19c4.86-7.22,12.21-12.28,21.21-12.28a19.7,19.7,0,0,1,9.1,1.88l-1.17,3.73a21.32,21.32,0,0,0-8.53-1.64c-7.55,0-14.37,3.82-20.65,14.09V1020H614Z" transform="translate(0 0)"/><path d="M98.77,1126.83l2.2-3c5,3.89,11,6.61,20.45,6.61,9.21,0,13.93-4.15,13.93-8.89,0-4.1-1.58-7.36-15.91-10.24-11.45-2.31-18-6-18-12.67,0-6.51,5.53-12,17.62-12a31.65,31.65,0,0,1,17.32,5.55l-2.25,3a25.54,25.54,0,0,0-15.39-5c-9.83,0-13,4-13,8.22,0,4.77,4.63,7.15,14.85,9.26,15.61,3.29,19.08,6.91,19.08,13.62S132.93,1134,121,1134A38.57,38.57,0,0,1,98.77,1126.83Z" transform="translate(0 0)"/><path d="M168.61,1116v-24.63H155v-3.23l13.73-.4.56-14.94h3.54v14.94h24v3.63h-24v24.93c0,8.79,2.52,14,12.59,14a31.17,31.17,0,0,0,12-2.35l1.14,3.21a35,35,0,0,1-13.74,2.79C172.38,1134,168.61,1126.7,168.61,1116Z" transform="translate(0 0)"/><path d="M210.19,1110.37c0-15.12,10.05-23.79,21.87-23.79s21.88,8.67,21.88,23.79c0,14.93-10.05,23.6-21.88,23.6S210.19,1125.3,210.19,1110.37Zm39.38,0c0-11.9-7.33-20.11-17.51-20.11s-17.51,8.21-17.51,20.11,7.33,19.92,17.51,19.92S249.57,1122.24,249.57,1110.37Z" transform="translate(0 0)"/><path d="M285.71,1119.23v-50.37H268.59v-3.63h21.3v54.57c0,7.12,3.43,10.49,9.84,10.49A21.18,21.18,0,0,0,309,1128l1.36,3.23a23.47,23.47,0,0,1-11.27,2.79C290.59,1134,285.71,1129.49,285.71,1119.23Z" transform="translate(0 0)"/><path d="M323.88,1110.32c0-14.72,10.81-23.74,22.62-23.74,12.34,0,20.18,7.94,20.18,20.88a21.16,21.16,0,0,1-.24,3.47H326v-3.55h38.69l-1.77,1.68c0-12.79-6.66-18.9-16.33-18.9-9.42,0-18.39,7.35-18.39,20,0,13.08,9.08,20.19,19.78,20.19a25.74,25.74,0,0,0,15.14-4.87l1.72,3.16a29.38,29.38,0,0,1-17.12,5.31C334.64,1134,323.88,1125.13,323.88,1110.32Z" transform="translate(0 0)"/><path d="M383,1087.71h3.51l.46,8.66h.37c5.21-5.59,10.54-9.79,17.82-9.79,10.95,0,16.2,5.91,16.2,18.15v28.11h-4.17v-27.56c0-10.08-3.76-14.94-12.7-14.94-6.41,0-10.82,3.34-17.32,10.16v32.34H383Z" transform="translate(0 0)"/><path d="M493.56,1126.83l2.2-3c5,3.89,11,6.61,20.45,6.61,9.21,0,13.93-4.15,13.93-8.89,0-4.1-1.58-7.36-15.9-10.24-11.46-2.31-18-6-18-12.67,0-6.51,5.53-12,17.62-12a31.68,31.68,0,0,1,17.33,5.55l-2.26,3a25.54,25.54,0,0,0-15.39-5c-9.83,0-13,4-13,8.22,0,4.77,4.64,7.15,14.86,9.26,15.61,3.29,19.07,6.91,19.07,13.62S527.72,1134,515.82,1134A38.6,38.6,0,0,1,493.56,1126.83Z" transform="translate(0 0)"/><path d="M563.4,1116v-24.63H549.75v-3.23l13.73-.4.55-14.94h3.55v14.94h24v3.63h-24v24.93c0,8.79,2.52,14,12.58,14a31.17,31.17,0,0,0,12-2.35l1.15,3.21a35.07,35.07,0,0,1-13.74,2.79C567.18,1134,563.4,1126.7,563.4,1116Z" transform="translate(0 0)"/><path d="M605,1110.37c0-15.12,10-23.79,21.88-23.79s21.87,8.67,21.87,23.79c0,14.93-10.05,23.6-21.87,23.6S605,1125.3,605,1110.37Zm39.39,0c0-11.9-7.33-20.11-17.51-20.11s-17.52,8.21-17.52,20.11,7.34,19.92,17.52,19.92S644.37,1122.24,644.37,1110.37Z" transform="translate(0 0)"/><path d="M665,1087.71h3.52l.45,8.66h.38c5.2-5.59,10.53-9.79,17.81-9.79,11,0,16.21,5.91,16.21,18.15v28.11h-4.18v-27.56c0-10.08-3.76-14.94-12.69-14.94-6.41,0-10.83,3.34-17.32,10.16v32.34H665Z" transform="translate(0 0)"/><path d="M718.67,1110.32c0-14.72,10.82-23.74,22.62-23.74,12.34,0,20.19,7.94,20.19,20.88a21.16,21.16,0,0,1-.24,3.47H720.76v-3.55h38.68l-1.77,1.68c0-12.79-6.66-18.9-16.32-18.9-9.42,0-18.4,7.35-18.4,20,0,13.08,9.08,20.19,19.78,20.19a25.71,25.71,0,0,0,15.14-4.87l1.73,3.16a29.41,29.41,0,0,1-17.13,5.31C729.44,1134,718.67,1125.13,718.67,1110.32Z" transform="translate(0 0)"/></g><g id="card_logo_right" data-name="card logo right"><path class="cls-7" d="M444,376a63.05,63.05,0,0,1,22,4c10.87,4.12,15.8,9.61,28,20,23.1,19.67,23.88,15.68,37,29a131.67,131.67,0,0,1,23,30c6.64,12.06,9.47,22,14,38a250,250,0,0,1,7,32c1.5,10.36,2.7,18.65,2,30a98.55,98.55,0,0,1-5,27c-2.38,7-3.21,6.6-13,26-8.63,17.1-8.27,17.93-12,23-5.07,6.89-5.83,5.47-17,18-8.32,9.33-8.73,11-15,17a98.49,98.49,0,0,1-15,12c-5.48,3.54-5.74,2.89-17,9s-11.88,7.27-17,9c-7.39,2.5-7.74.72-16,3-11.41,3.15-11.84,6.86-22,9-3.18.67-7.46.78-16,1-8.31.21-18.17,0-18,0a52.88,52.88,0,0,1-19,0c-6-1.13-15-4-15-4-7.88-2.23-14.64-4.3-20-6-4.44-1.41-10.3-3.27-18-6-3.6-1.27-9-3.19-16-6-6.82-2.73-10.22-4.09-14-6-8.05-4.06-12.73-6.42-17-11-6.18-6.62-3-8.81-10-18,0,0-1.82-2.41-15-15a93.19,93.19,0,0,1-19-21,124.15,124.15,0,0,1-9-17,111.54,111.54,0,0,1-7-18,84.18,84.18,0,0,1-3-15c-.49-4.78-.12-5.59,0-19,.07-7.24,0-13.51,0-16-.11-13.67-.42-14.09,0-18,.55-5.11,1.16-5.06,4-17,3.8-15.95,2.69-15.94,5-21,2.05-4.48,14.61-23.08,10-16a63,63,0,0,1,14-22c9.38-9.44,18.27-12,18-18-.29-6.53-11.12-13.13-12-14-4.89-5.07-9-9.1-12-12-4-3.82-5.95-5.73-7.46-7-3.63-3-4.65-3.35-4.54-4,.42-2.73,17.21-1.22,38-3,8-.69,15.09-1.91,22-3,12.67-2,19-3,23-4,11.34-2.81,14.16-4.92,17-3,3.18,2.15,3.73,7.08,3,21-.42,8.08-1.25,19-3,32,.43,37.32-3.28,49.07-8,50-8.67,1.7-19.94-33.18-33-31-4.67.78-7.9,6.19-14,15-3.78,5.46-6,10.35-9,17-2.54,5.62-2.77,7-6,15-6.38,15.87-6.88,14.22-9,21-3,9.6-3.49,17.71-4,26a152.67,152.67,0,0,0,0,18c.59,11.83,2.78,12.62,4,26,.83,9,.14,10.5,2,14,1.47,2.76,3,4,13,12,6.77,5.45,10.18,8.19,11,9,5.6,5.49,5.79,7.71,12,15a95.39,95.39,0,0,0,12,12c5.23,4.29,7.29,4.77,20,12,11,6.24,10.24,6.34,22,13,9.66,5.47,14.5,8.21,19,10a93.5,93.5,0,0,0,24,6c6.79.76,16,1.79,27-1,8.08-2,7.5-3.73,20-8,10.85-3.7,12.55-2.88,21-6,6.08-2.25,7.19-3.42,21-11,21.46-11.79,22.23-10.86,29-16,8.45-6.41,13.63-12.69,18-18,6.22-7.55,13.32-16.16,18-29,2.11-5.78,3.07-12.85,5-27,2-14.88,3.1-22.76,3-34a179,179,0,0,0-3-30c-2.79-16.79-4.44-26.09-11-36-2.18-3.29-1.43-1.4-9-11-11.12-14.09-11.57-16.67-18-23-4.87-4.79-9.42-8-15-12a165.58,165.58,0,0,0-14-9,130.61,130.61,0,0,0-15-8s-2.42-1.06-16-6l-13-10" transform="translate(0 0)"/><path class="cls-6" d="M435.5,474.57l-.21.06,19.84,39.44,55.24.86v0Zm-28.28-33.49,165,88.9L397.63,710.12,228.24,530.41Zm12.36,222.18L523.1,542l-54.37,3.87ZM340.12,517.51l54.37-46-107.7,44.71ZM383,664.12,329.66,542.88l-52.28-1.72Z" transform="translate(0 0)"/><polygon class="cls-8" points="523.1 542.02 419.58 663.26 468.73 545.89 523.1 542.02"/><polygon class="cls-8" points="510.37 514.91 510.37 514.93 455.13 514.07 435.29 474.63 435.5 474.57 510.37 514.91"/><polygon class="cls-8" points="394.49 471.51 340.12 517.51 286.79 516.22 394.49 471.51"/><polygon class="cls-8" points="329.66 542.88 382.99 664.12 277.38 541.16 329.66 542.88"/></g></g></svg>