<svg xmlns="http://www.w3.org/2000/svg" viewBox="0 0 801 1300"><defs><style>.cls-1{isolation:isolate;}.cls-2{mix-blend-mode:color;}.cls-3{fill:#ff9c71;}.cls-3,.cls-4{stroke:#000;stroke-miterlimit:10;}.cls-4,.cls-6{fill:#e8ead3;}.cls-5{fill:#0a770a;}.cls-7{fill:#0e7c08;}</style></defs><g class="cls-1"><g id="Background" class="cls-2"><rect class="cls-3" x="0.5" y="0.5" width="800" height="1299"/></g><g id="Card_type" data-name="Card type"><rect class="cls-4" x="188.5" y="38.5" width="412" height="113"/><path class="cls-5" d="M248.53,66h4.37L274.7,128h-4.63L257.74,91.51c-2.51-7.34-4.71-13.83-6.86-21.38h-.38c-2.18,7.55-4.36,14-6.86,21.38L231.12,128h-4.39Zm-11.83,37h27.74v3.65H236.7Z" transform="translate(0 0)"/><path class="cls-5" d="M287.12,105.5c0-15.12,11.11-23.79,24.58-23.79a22.21,22.21,0,0,1,16.23,6.88l-2.42,2.86c-3.83-3.61-8.19-6.06-13.73-6.06-12,0-20.3,8.21-20.3,20.11s8.1,19.92,20.25,19.92c6.12,0,11.16-2.74,15.19-6.49l2.18,2.89a25.21,25.21,0,0,1-17.53,7.28C297.56,129.1,287.12,120.42,287.12,105.5Z" transform="translate(0 0)"/><path class="cls-5" d="M356.46,111.09V86.46H342.8V83.24l13.73-.4.56-14.94h3.54V82.84h24v3.62h-24v24.93c0,8.8,2.52,14,12.59,14a31.21,31.21,0,0,0,12-2.34l1.14,3.2a35,35,0,0,1-13.74,2.8C360.23,129.1,356.46,121.83,356.46,111.09Z" transform="translate(0 0)"/><path class="cls-5" d="M423.44,86.46H400.86V82.84h26.76V128h-4.18Zm-3.31-19.09a4.43,4.43,0,1,1,4.43,4.51A4.3,4.3,0,0,1,420.13,67.37Z" transform="translate(0 0)"/><path class="cls-5" d="M454.44,105.5c0-15.12,10-23.79,21.87-23.79s21.87,8.67,21.87,23.79c0,14.92-10,23.6-21.87,23.6S454.44,120.42,454.44,105.5Zm39.38,0c0-11.9-7.33-20.11-17.51-20.11S458.8,93.6,458.8,105.5s7.33,19.92,17.51,19.92S493.82,117.37,493.82,105.5Z" transform="translate(0 0)"/><path class="cls-5" d="M514.42,82.84h3.51l.45,8.66h.38c5.21-5.6,10.54-9.79,17.82-9.79,10.94,0,16.2,5.91,16.2,18.15V128h-4.17V100.41c0-10.08-3.76-15-12.7-15-6.41,0-10.83,3.35-17.32,10.17V128h-4.17Z" transform="translate(0 0)"/><text/></g><g id="card_text" data-name="card text"><rect class="cls-6" x="43" y="839" width="722" height="419"/><path d="M158.56,845.31h16.83c13.83,0,22.09,4.54,22.09,17.25,0,12.17-8.28,18.05-22.09,18.05h-12.5v26.63h-4.33ZM174.31,877c12.63,0,18.69-4.22,18.69-14.4,0-10.34-6.08-13.6-18.69-13.6H162.89v28Z" transform="translate(0 0)"/><path d="M229.31,893.63V843.26H212.19v-3.63h21.3V894.2c0,7.12,3.43,10.49,9.84,10.49a21.18,21.18,0,0,0,9.31-2.34l1.36,3.23a23.46,23.46,0,0,1-11.26,2.79C234.19,908.37,229.31,903.89,229.31,893.63Z" transform="translate(0 0)"/><path d="M268.88,896c0-10.1,10.13-14.88,34.62-17-.08-7.44-3.09-14.35-13.43-14.35-6.81,0-13.39,3.51-17.07,6.14l-1.94-3.07c3.6-2.6,11.45-6.72,19.5-6.72,12.09,0,17.11,7.77,17.11,17.43v28.83h-3.54l-.46-6.75h-.21c-5.19,4.15-12.18,7.88-18.84,7.88C276.54,908.37,268.88,904.47,268.88,896Zm34.62.6V882.16c-23,2.05-30.34,6.39-30.34,13.63,0,6.47,6.07,9,12.16,9C291.1,904.74,297.14,902,303.5,896.61Z" transform="translate(0 0)"/><path d="M323,926.84l1.12-3.61a14.77,14.77,0,0,0,4.41.73c7,0,11.41-5.07,14.14-11.94l1.59-3.93-21.93-46h4.34l13.15,28.34c1.78,3.83,4,8.7,6.18,12.77h.38c1.8-4.05,3.72-8.91,5.3-12.77l11.71-28.34h4.1l-21.23,50.81c-2.7,7.52-8.32,14.86-17.86,14.86A15.78,15.78,0,0,1,323,926.84Z" transform="translate(0 0)"/><path d="M450.6,890.37V865.74H437v-3.23l13.73-.4.56-14.94h3.54v14.94h24v3.63h-24v24.93c0,8.79,2.52,14.05,12.59,14.05a31.35,31.35,0,0,0,12-2.34l1.15,3.2a35,35,0,0,1-13.74,2.79C454.38,908.37,450.6,901.1,450.6,890.37Z" transform="translate(0 0)"/><path d="M495.76,839.63h4.18v19.61l-.27,11.83h.22c5.36-5.89,10.85-10.09,18-10.09,10.94,0,16.2,5.91,16.2,18.15v28.11H530V879.68c0-10.08-3.77-14.94-12.7-14.94-6.41,0-10.83,3.34-17.32,10.16v32.34h-4.18Z" transform="translate(0 0)"/><path d="M549.47,884.72C549.47,870,560.29,861,572.1,861c12.34,0,20.18,7.94,20.18,20.88a21.16,21.16,0,0,1-.24,3.47H551.56v-3.55h38.68l-1.77,1.68c0-12.79-6.65-18.9-16.32-18.9-9.42,0-18.39,7.35-18.39,20,0,13.08,9.07,20.19,19.77,20.19a25.77,25.77,0,0,0,15.15-4.87l1.72,3.16a29.4,29.4,0,0,1-17.12,5.31C560.24,908.37,549.47,899.54,549.47,884.72Z" transform="translate(0 0)"/><path d="M42.37,1014l2.2-3c5,3.9,11,6.61,20.45,6.61,9.21,0,13.93-4.15,13.93-8.89,0-4.1-1.58-7.36-15.9-10.24-11.46-2.31-18-6-18-12.67,0-6.51,5.53-12,17.62-12A31.71,31.71,0,0,1,80,979.33l-2.26,3a25.54,25.54,0,0,0-15.39-5c-9.83,0-13,4-13,8.22,0,4.77,4.63,7.15,14.85,9.26,15.62,3.29,19.08,6.91,19.08,13.62s-6.76,12.74-18.66,12.74A38.58,38.58,0,0,1,42.37,1014Z" transform="translate(0 0)"/><path d="M99.68,1008.81c0-10.1,10.14-14.88,34.62-17-.08-7.44-3.09-14.35-13.43-14.35-6.81,0-13.39,3.51-17.07,6.14l-1.94-3.07c3.6-2.6,11.45-6.72,19.51-6.72,12.09,0,17.1,7.77,17.1,17.43V1020h-3.54l-.45-6.75h-.22c-5.18,4.15-12.17,7.88-18.84,7.88C107.35,1021.17,99.68,1017.27,99.68,1008.81Zm34.62.6V995c-23,2-30.34,6.39-30.34,13.63,0,6.47,6.07,8.95,12.16,8.95C121.9,1017.54,127.94,1014.76,134.3,1009.41Z" transform="translate(0 0)"/><path d="M154.42,974.91h3.47l.45,6.15h.19c2.62-4.43,5.37-7.28,10.43-7.28s7.74,2.63,9,8c3.25-5.16,6-8,11.06-8,6.25,0,9.81,4.5,9.81,13.55V1020h-4.15V987.76c0-6.77-2.12-10.25-6.46-10.25-4.09,0-6.6,2.83-9.59,8.49v34h-4V987.76c0-6.77-2.07-10.25-6.41-10.25-4.08,0-6.7,2.83-9.64,8.49v34h-4.15Z" transform="translate(0 0)"/><path d="M211.08,997.52c0-14.72,10.81-23.74,22.62-23.74,12.34,0,20.18,7.94,20.18,20.88a22.31,22.31,0,0,1-.23,3.47H213.17v-3.55h38.68l-1.77,1.68c0-12.79-6.66-18.9-16.33-18.9-9.41,0-18.39,7.35-18.39,20,0,13.08,9.08,20.19,19.78,20.19a25.74,25.74,0,0,0,15.14-4.87l1.72,3.16a29.38,29.38,0,0,1-17.12,5.31C221.84,1021.17,211.08,1012.33,211.08,997.52Z" transform="translate(0 0)"/><path d="M324.87,997.57c0-15.12,11.1-23.79,24.58-23.79a22.18,22.18,0,0,1,16.22,6.88l-2.41,2.86c-3.83-3.61-8.19-6.06-13.73-6.06-12,0-20.3,8.21-20.3,20.11s8.1,19.92,20.24,19.92c6.12,0,11.16-2.74,15.2-6.49l2.18,2.89a25.21,25.21,0,0,1-17.53,7.28C335.31,1021.17,324.87,1012.5,324.87,997.57Z" transform="translate(0 0)"/><path d="M381.68,1008.81c0-10.1,10.13-14.88,34.61-17-.07-7.44-3.08-14.35-13.42-14.35-6.81,0-13.39,3.51-17.08,6.14l-1.93-3.07c3.6-2.6,11.44-6.72,19.5-6.72,12.09,0,17.11,7.77,17.11,17.43V1020h-3.55l-.45-6.75h-.21c-5.19,4.15-12.18,7.88-18.84,7.88C389.34,1021.17,381.68,1017.27,381.68,1008.81Zm34.61.6V995c-23,2-30.33,6.39-30.33,13.63,0,6.47,6.07,8.95,12.16,8.95C403.9,1017.54,409.93,1014.76,416.29,1009.41Z" transform="translate(0 0)"/><path d="M444.8,974.91h3.54l.48,11.15H449c4.86-7.22,12.21-12.28,21.22-12.28a19.68,19.68,0,0,1,9.09,1.88l-1.17,3.73a21.28,21.28,0,0,0-8.53-1.64c-7.54,0-14.37,3.82-20.65,14.09V1020H444.8Z" transform="translate(0 0)"/><path d="M492.18,997.57c0-14.58,10-23.79,21.23-23.79,5.66,0,10.3,2.37,14.82,6.38h.19l-.24-9.12V952.43h4.17V1020h-3.52l-.45-6.7h-.21c-4,4.13-9.76,7.83-16.11,7.83C500.22,1021.17,492.18,1012.8,492.18,997.57Zm36,11.62V984.12c-5.1-4.81-9.77-6.63-14.47-6.63-9.54,0-17.17,8.73-17.17,20,0,12,6,19.93,16.12,19.93C517.92,1017.47,523.18,1014.53,528.18,1009.19Z" transform="translate(0 0)"/><path d="M607.27,1008.81c0-10.1,10.14-14.88,34.62-17-.08-7.44-3.08-14.35-13.43-14.35-6.81,0-13.39,3.51-17.07,6.14l-1.94-3.07c3.61-2.6,11.45-6.72,19.51-6.72,12.09,0,17.1,7.77,17.1,17.43V1020h-3.54l-.45-6.75h-.21c-5.19,4.15-12.18,7.88-18.85,7.88C614.94,1021.17,607.27,1017.27,607.27,1008.81Zm34.62.6V995c-23,2-30.33,6.39-30.33,13.63,0,6.47,6.07,8.95,12.15,8.95C629.5,1017.54,635.53,1014.76,641.89,1009.41Z" transform="translate(0 0)"/><path d="M662.76,1014l2.2-3c5,3.9,11,6.61,20.45,6.61,9.21,0,13.93-4.15,13.93-8.89,0-4.1-1.58-7.36-15.9-10.24-11.46-2.31-18-6-18-12.67,0-6.51,5.53-12,17.62-12a31.71,31.71,0,0,1,17.33,5.55l-2.26,3a25.54,25.54,0,0,0-15.39-5c-9.83,0-13,4-13,8.22,0,4.77,4.63,7.15,14.85,9.26,15.62,3.29,19.08,6.91,19.08,13.62s-6.76,12.74-18.66,12.74A38.58,38.58,0,0,1,662.76,1014Z" transform="translate(0 0)"/><path d="M55.81,1116v-24.63H42.15v-3.23l13.74-.4.55-14.94H60v14.94H84v3.63H60v24.93c0,8.79,2.52,14,12.59,14a31.17,31.17,0,0,0,12-2.35l1.14,3.21A35,35,0,0,1,72,1134C59.58,1134,55.81,1126.7,55.81,1116Z" transform="translate(0 0)"/><path d="M101,1065.23h4.17v19.61l-.26,11.83h.21c5.36-5.89,10.86-10.09,18-10.09,11,0,16.2,5.91,16.2,18.15v28.11h-4.17v-27.56c0-10.08-3.76-14.94-12.69-14.94-6.41,0-10.83,3.34-17.33,10.16v32.34H101Z" transform="translate(0 0)"/><path d="M154.68,1110.32c0-14.72,10.82-23.74,22.62-23.74,12.34,0,20.19,7.94,20.19,20.88a21.16,21.16,0,0,1-.24,3.47H156.77v-3.55h38.68l-1.77,1.68c0-12.79-6.66-18.9-16.33-18.9-9.41,0-18.39,7.35-18.39,20,0,13.08,9.08,20.19,19.78,20.19a25.74,25.74,0,0,0,15.14-4.87l1.73,3.16a29.41,29.41,0,0,1-17.13,5.31C165.44,1134,154.68,1125.13,154.68,1110.32Z" transform="translate(0 0)"/><path d="M285.71,1119.23v-50.37H268.59v-3.63h21.3v54.57c0,7.12,3.43,10.49,9.84,10.49A21.18,21.18,0,0,0,309,1128l1.36,3.23a23.47,23.47,0,0,1-11.27,2.79C290.59,1134,285.71,1129.49,285.71,1119.23Z" transform="translate(0 0)"/><path d="M325.28,1121.61c0-10.1,10.13-14.88,34.61-17-.07-7.44-3.08-14.35-13.42-14.35-6.81,0-13.39,3.51-17.08,6.14l-1.93-3.07c3.6-2.6,11.45-6.72,19.5-6.72,12.09,0,17.11,7.77,17.11,17.43v28.83h-3.54l-.46-6.75h-.21c-5.19,4.15-12.18,7.88-18.84,7.88C332.94,1134,325.28,1130.07,325.28,1121.61Zm34.61.6v-14.45c-23,2-30.33,6.39-30.33,13.63,0,6.47,6.07,8.95,12.16,8.95C347.5,1130.34,353.54,1127.56,359.89,1122.21Z" transform="translate(0 0)"/><path d="M380.76,1126.83l2.2-3c5,3.89,11,6.61,20.45,6.61,9.22,0,13.93-4.15,13.93-8.89,0-4.1-1.58-7.36-15.9-10.24-11.46-2.31-18-6-18-12.67,0-6.51,5.52-12,17.61-12a31.68,31.68,0,0,1,17.33,5.55l-2.25,3a25.56,25.56,0,0,0-15.39-5c-9.83,0-13,4-13,8.22,0,4.77,4.64,7.15,14.86,9.26,15.61,3.29,19.07,6.91,19.07,13.62S414.92,1134,403,1134A38.6,38.6,0,0,1,380.76,1126.83Z" transform="translate(0 0)"/><path d="M450.6,1116v-24.63H437v-3.23l13.73-.4.56-14.94h3.54v14.94h24v3.63h-24v24.93c0,8.79,2.52,14,12.59,14a31.16,31.16,0,0,0,12-2.35l1.15,3.21a35,35,0,0,1-13.74,2.79C454.38,1134,450.6,1126.7,450.6,1116Z" transform="translate(0 0)"/><path d="M563.4,1116v-24.63H549.75v-3.23l13.73-.4.55-14.94h3.55v14.94h24v3.63h-24v24.93c0,8.79,2.52,14,12.58,14a31.17,31.17,0,0,0,12-2.35l1.15,3.21a35.07,35.07,0,0,1-13.74,2.79C567.18,1134,563.4,1126.7,563.4,1116Z" transform="translate(0 0)"/><path d="M606.79,1115.82v-28.11H611v27.56c0,10.06,3.76,14.94,12.72,14.94,6.36,0,11.1-3.19,17.27-10.21v-32.29h4.17v45.13h-3.54l-.45-8.74h-.38c-4.88,5.7-10.51,9.87-17.76,9.87C612,1134,606.79,1128.06,606.79,1115.82Z" transform="translate(0 0)"/><path d="M670.4,1087.71h3.54l.48,11.15h.19c4.86-7.22,12.21-12.28,21.21-12.28a19.7,19.7,0,0,1,9.1,1.88l-1.17,3.73a21.32,21.32,0,0,0-8.53-1.64c-7.55,0-14.38,3.82-20.65,14.09v28.2H670.4Z" transform="translate(0 0)"/><path d="M721.36,1087.71h3.52l.45,8.66h.38c5.2-5.59,10.53-9.79,17.81-9.79,11,0,16.2,5.91,16.2,18.15v28.11h-4.17v-27.56c0-10.08-3.76-14.94-12.69-14.94-6.41,0-10.83,3.34-17.32,10.16v32.34h-4.18Z" transform="translate(0 0)"/></g><g id="card_logo_right" data-name="card logo right"><path class="cls-7" d="M451,318a63.05,63.05,0,0,1,22,4c10.87,4.12,15.8,9.61,28,20,23.1,19.67,23.88,15.68,37,29a131.67,131.67,0,0,1,23,30c6.64,12.06,9.47,22,14,38a250,250,0,0,1,7,32c1.5,10.36,2.7,18.65,2,30a98.55,98.55,0,0,1-5,27c-2.38,7-3.21,6.6-13,26-8.63,17.1-8.27,17.93-12,23-5.07,6.89-5.83,5.47-17,18-8.32,9.33-8.73,11-15,17a98.49,98.49,0,0,1-15,12c-5.48,3.54-5.74,2.89-17,9s-11.88,7.27-17,9c-7.39,2.5-7.74.72-16,3-11.41,3.15-11.84,6.86-22,9-3.18.67-7.46.78-16,1-8.31.21-18.17,0-18,0a52.88,52.88,0,0,1-19,0c-6-1.13-15-4-15-4-7.88-2.23-14.64-4.3-20-6-4.44-1.41-10.3-3.27-18-6-3.6-1.27-9-3.19-16-6-6.82-2.73-10.22-4.09-14-6-8.05-4.06-12.73-6.42-17-11-6.18-6.62-3-8.81-10-18,0,0-1.82-2.41-15-15a93.19,93.19,0,0,1-19-21,124.15,124.15,0,0,1-9-17,111.54,111.54,0,0,1-7-18,84.18,84.18,0,0,1-3-15c-.49-4.78-.12-5.59,0-19,.07-7.24,0-13.51,0-16-.11-13.67-.42-14.09,0-18,.55-5.11,1.16-5.06,4-17,3.8-15.95,2.69-15.94,5-21,2.05-4.48,14.61-23.08,10-16a63,63,0,0,1,14-22c9.38-9.44,18.27-12,18-18-.29-6.53-11.12-13.13-12-14-4.89-5.07-9-9.1-12-12-4-3.82-5.95-5.73-7.46-7-3.63-3-4.65-3.35-4.54-4,.42-2.73,17.21-1.22,38-3,8-.69,15.09-1.91,22-3,12.67-2,19-3,23-4,11.34-2.81,14.16-4.92,17-3,3.18,2.15,3.73,7.08,3,21-.42,8.08-1.25,19-3,32,.43,37.32-3.28,49.07-8,50-8.67,1.7-19.94-33.18-33-31-4.67.78-7.9,6.19-14,15-3.78,5.46-6,10.35-9,17-2.54,5.62-2.77,7-6,15-6.38,15.87-6.88,14.22-9,21-3,9.6-3.49,17.71-4,26a152.67,152.67,0,0,0,0,18c.59,11.83,2.78,12.62,4,26,.83,9,.14,10.5,2,14,1.47,2.76,3,4,13,12,6.77,5.45,10.18,8.19,11,9,5.6,5.49,5.79,7.71,12,15a95.39,95.39,0,0,0,12,12c5.23,4.29,7.29,4.77,20,12,11,6.24,10.24,6.34,22,13,9.66,5.47,14.5,8.21,19,10a93.5,93.5,0,0,0,24,6c6.79.76,16,1.79,27-1,8.08-2,7.5-3.73,20-8,10.85-3.7,12.55-2.88,21-6,6.08-2.25,7.19-3.42,21-11,21.46-11.79,22.23-10.86,29-16,8.45-6.41,13.63-12.69,18-18,6.22-7.55,13.32-16.16,18-29,2.11-5.78,3.07-12.85,5-27,2-14.88,3.1-22.76,3-34a179,179,0,0,0-3-30c-2.79-16.79-4.44-26.09-11-36-2.18-3.29-1.43-1.4-9-11-11.12-14.09-11.57-16.67-18-23-4.87-4.79-9.42-8-15-12a165.58,165.58,0,0,0-14-9,130.61,130.61,0,0,0-15-8s-2.42-1.06-16-6l-13-10" transform="translate(0 0)"/></g></g></svg>