<svg xmlns="http://www.w3.org/2000/svg" viewBox="0 0 801 1300">
  <defs>
    <style>
      .cls-1 {
        isolation: isolate;
      }

      .cls-2 {
        mix-blend-mode: color;
      }

      .cls-3 {
        fill: #ff9c71;
      }

      .cls-3, .cls-4 {
        stroke: #000;
      }

      .cls-3, .cls-4, .cls-8 {
        stroke-miterlimit: 10;
      }

      .cls-4, .cls-6 {
        fill: #e8ead3;
      }

      .cls-5 {
        fill: #a21200;
      }

      .cls-7 {
        fill: #a2ef65;
      }

      .cls-8 {
        fill: #d53800;
        stroke: #d53800;
      }
    </style>
  </defs>
  <g class="cls-1">
    <g id="Background" class="cls-2">
      <rect class="cls-3" x="0.5" y="0.5" width="800" height="1299"/>
    </g>
    <g id="Card_type" data-name="Card type">
      <rect class="cls-4" x="188.5" y="38.5" width="412" height="113"/>
      <g>
        <path class="cls-5" d="M248.53,66h4.37L274.7,128h-4.63L257.74,91.51c-2.51-7.34-4.71-13.83-6.86-21.38h-.38c-2.18,7.55-4.36,14-6.86,21.38L231.12,128h-4.39Zm-11.83,37h27.74v3.65H236.7Z" transform="translate(0 0)"/>
        <path class="cls-5" d="M300.06,111.09V86.46H286.4V83.24l13.73-.4.56-14.94h3.54V82.84h24v3.62h-24v24.93c0,8.8,2.52,14,12.59,14a31.21,31.21,0,0,0,12-2.34l1.14,3.2a35,35,0,0,1-13.74,2.8C303.83,129.1,300.06,121.83,300.06,111.09Z" transform="translate(0 0)"/>
        <path class="cls-5" d="M356.46,111.09V86.46H342.8V83.24l13.73-.4.56-14.94h3.54V82.84h24v3.62h-24v24.93c0,8.8,2.52,14,12.59,14a31.21,31.21,0,0,0,12-2.34l1.14,3.2a35,35,0,0,1-13.74,2.8C360.23,129.1,356.46,121.83,356.46,111.09Z" transform="translate(0 0)"/>
        <path class="cls-5" d="M400.33,116.74c0-10.11,10.13-14.88,34.61-17-.07-7.43-3.08-14.34-13.42-14.34-6.81,0-13.39,3.51-17.08,6.14l-1.93-3.08c3.6-2.59,11.45-6.71,19.5-6.71,12.09,0,17.11,7.77,17.11,17.43V128h-3.54l-.46-6.75h-.21c-5.19,4.15-12.18,7.88-18.84,7.88C408,129.1,400.33,125.19,400.33,116.74Zm34.61.59V102.89c-23,2-30.33,6.38-30.33,13.63,0,6.47,6.07,9,12.16,9C422.55,125.47,428.59,122.68,434.94,117.33Z" transform="translate(0 0)"/>
        <path class="cls-5" d="M456.32,105.5c0-15.12,11.1-23.79,24.58-23.79a22.18,22.18,0,0,1,16.22,6.88l-2.41,2.86c-3.83-3.61-8.19-6.06-13.74-6.06-12,0-20.29,8.21-20.29,20.11s8.1,19.92,20.24,19.92c6.12,0,11.16-2.74,15.2-6.49l2.17,2.89a25.16,25.16,0,0,1-17.52,7.28C466.76,129.1,456.32,120.42,456.32,105.5Z" transform="translate(0 0)"/>
        <path class="cls-5" d="M516.09,60.36h4.17V110h.38l29-27.18h5.17l-34.53,32.31V128h-4.17ZM532.5,101.8l2.79-2.88L557.78,128H553Z" transform="translate(0 0)"/>
      </g>
      <text/>    </g>
    <g id="card_text" data-name="card text">
      <rect class="cls-6" x="43" y="839" width="722" height="419"/>
      <g>
        <path d="M231.65,994.05l2.79-3a26,26,0,0,0,19.14,8.37c10,0,16.22-5.07,16.22-12.35,0-7.82-5.48-10.24-12-13l-9.41-4.22c-5.77-2.38-13.46-6.22-13.46-15.41,0-9,8.05-15.26,18.91-15.26A25.5,25.5,0,0,1,272,946.59l-2.49,2.88a21.62,21.62,0,0,0-15.75-6.35c-8.65,0-14.47,4.35-14.47,11.06,0,7.22,6.69,9.93,11.61,11.93l9.34,4.19c7.4,3.08,14,6.92,14,16.38s-8.14,16.69-20.71,16.69A29,29,0,0,1,231.65,994.05Z" transform="translate(0 0)"/>
        <path d="M290.77,934.63h4.17v19.61l-.26,11.83h.21c5.36-5.89,10.85-10.09,18-10.09,10.95,0,16.2,5.91,16.2,18.15v28.11H325V974.68c0-10.08-3.76-14.94-12.69-14.94-6.41,0-10.83,3.34-17.33,10.16v32.34h-4.17Z" transform="translate(0 0)"/>
        <path d="M369,960.74H346.41v-3.63h26.76v45.13H369Zm-3.3-19.1a4.42,4.42,0,1,1,4.42,4.51A4.29,4.29,0,0,1,365.69,941.64Z" transform="translate(0 0)"/>
        <path d="M400.88,979.72C400.88,965,411.69,956,423.5,956c12.34,0,20.18,7.94,20.18,20.88a21.16,21.16,0,0,1-.24,3.47H403v-3.55h38.69l-1.77,1.68c0-12.79-6.66-18.9-16.33-18.9-9.42,0-18.39,7.35-18.39,20,0,13.08,9.08,20.19,19.78,20.19a25.74,25.74,0,0,0,15.14-4.87l1.72,3.16a29.38,29.38,0,0,1-17.12,5.31C411.64,1003.37,400.88,994.54,400.88,979.72Z" transform="translate(0 0)"/>
        <path d="M475.51,988.63V938.26H458.39v-3.63h21.29V989.2c0,7.12,3.44,10.49,9.85,10.49a21.18,21.18,0,0,0,9.31-2.34l1.35,3.23a23.4,23.4,0,0,1-11.26,2.79C480.39,1003.37,475.51,998.89,475.51,988.63Z" transform="translate(0 0)"/>
        <path d="M512.79,979.77c0-14.58,10-23.79,21.22-23.79,5.66,0,10.3,2.37,14.82,6.38H549l-.24-9.12V934.63H553v67.61h-3.51l-.46-6.7h-.21c-4,4.13-9.76,7.83-16.11,7.83C520.82,1003.37,512.79,995,512.79,979.77Zm36,11.62V966.32c-5.1-4.81-9.77-6.63-14.47-6.63-9.54,0-17.16,8.73-17.16,20,0,12,6,19.93,16.11,19.93C538.52,999.67,543.78,996.73,548.78,991.39Z" transform="translate(0 0)"/>
        <path d="M177.13,1053.11H191.4c19,0,28,12,28,30.75s-9,31.18-27.93,31.18H177.13ZM191,1111.36c16.68,0,23.91-11.35,23.91-27.5s-7.23-27.07-23.91-27.07h-9.5v54.57Z" transform="translate(0 0)"/>
        <path d="M231.68,1092.52c0-14.72,10.82-23.74,22.62-23.74,12.34,0,20.19,7.94,20.19,20.88a21.16,21.16,0,0,1-.24,3.47H233.77v-3.55h38.68l-1.77,1.68c0-12.79-6.66-18.9-16.33-18.9-9.41,0-18.39,7.35-18.39,20,0,13.08,9.08,20.19,19.78,20.19a25.74,25.74,0,0,0,15.14-4.87l1.73,3.16a29.41,29.41,0,0,1-17.13,5.31C242.44,1116.17,231.68,1107.33,231.68,1092.52Z" transform="translate(0 0)"/>
        <path d="M288.56,1109l2.21-3c5,3.9,11,6.61,20.45,6.61,9.21,0,13.93-4.15,13.93-8.89,0-4.1-1.58-7.36-15.91-10.24-11.46-2.31-18-6-18-12.67,0-6.51,5.52-12,17.61-12a31.66,31.66,0,0,1,17.33,5.55l-2.25,3a25.56,25.56,0,0,0-15.39-5c-9.83,0-13,4-13,8.22,0,4.77,4.63,7.15,14.85,9.26,15.61,3.29,19.07,6.91,19.07,13.62s-6.75,12.74-18.66,12.74A38.6,38.6,0,0,1,288.56,1109Z" transform="translate(0 0)"/>
        <path d="M358.41,1098.17v-24.63H344.75v-3.23l13.73-.4L359,1055h3.54v14.94h24v3.63h-24v24.93c0,8.79,2.52,14,12.59,14a31.21,31.21,0,0,0,12-2.35l1.14,3.21a35,35,0,0,1-13.74,2.79C362.18,1116.17,358.41,1108.9,358.41,1098.17Z" transform="translate(0 0)"/>
        <path d="M409,1069.91h3.54l.48,11.15h.19c4.86-7.22,12.21-12.28,21.22-12.28a19.68,19.68,0,0,1,9.09,1.88l-1.17,3.73a21.28,21.28,0,0,0-8.53-1.64c-7.54,0-14.37,3.82-20.64,14.09V1115H409Z" transform="translate(0 0)"/>
        <path d="M456.39,1092.57c0-15.12,10-23.79,21.87-23.79s21.87,8.67,21.87,23.79c0,14.93-10,23.6-21.87,23.6S456.39,1107.5,456.39,1092.57Zm39.38,0c0-11.9-7.33-20.11-17.51-20.11s-17.51,8.21-17.51,20.11,7.33,19.92,17.51,19.92S495.77,1104.44,495.77,1092.57Z" transform="translate(0 0)"/>
        <path d="M512.76,1134.64l1.12-3.61a14.77,14.77,0,0,0,4.41.73c7,0,11.41-5.07,14.14-11.94l1.59-3.93-21.93-46h4.34l13.14,28.34c1.79,3.83,4,8.7,6.19,12.77h.38c1.8-4,3.72-8.91,5.3-12.77l11.71-28.34h4.1L536,1120.72c-2.69,7.52-8.31,14.86-17.85,14.86A15.78,15.78,0,0,1,512.76,1134.64Z" transform="translate(0 0)"/>
        <path d="M570.07,1092.52c0-14.72,10.82-23.74,22.63-23.74,12.34,0,20.18,7.94,20.18,20.88a21.16,21.16,0,0,1-.24,3.47H572.16v-3.55h38.68l-1.77,1.68c0-12.79-6.65-18.9-16.32-18.9-9.42,0-18.39,7.35-18.39,20,0,13.08,9.07,20.19,19.77,20.19a25.77,25.77,0,0,0,15.15-4.87l1.72,3.16a29.38,29.38,0,0,1-17.12,5.31C580.84,1116.17,570.07,1107.33,570.07,1092.52Z" transform="translate(0 0)"/>
        <path d="M634.6,1069.91h3.54l.48,11.15h.19c4.86-7.22,12.21-12.28,21.22-12.28a19.68,19.68,0,0,1,9.09,1.88l-1.17,3.73a21.28,21.28,0,0,0-8.53-1.64c-7.55,0-14.37,3.82-20.65,14.09V1115H634.6Z" transform="translate(0 0)"/>
      </g>
    </g>
    <g id="card_logo_right" data-name="card logo right">
      <g>
        <path class="cls-7" d="M672,359.5V447l-11,37-10,37-10,39-19,37-21,43-28,41-35,38-38,29-43,33-31,19-21.75,14.83L382.5,800l-31-19-43-33-38-29-35-38-28-41-21-43-19-37-10-39-10-37-11-37V359.5l-6-69H156l34-9,36-6,36-7,42-14,45-13,51-23,.19-.42L451,241l45,13,42,14,36,7,36,6,34,9h32l-3.5,69.5ZM270.5,404c0-25.13-16.12-45.5-36-45.5s-36,20.37-36,45.5,16.12,45.5,36,45.5S270.5,429.13,270.5,404Z" transform="translate(0 0)"/>
        <ellipse class="cls-7" cx="234.5" cy="404" rx="36" ry="45.5"/>
      </g>
      <rect class="cls-8" x="357.51" y="109.13" width="68" height="813.53" transform="translate(-250.13 427.94) rotate(-45)"/>
      <rect class="cls-8" x="360.73" y="96.6" width="68" height="813.53" transform="translate(317.91 1138.41) rotate(-135)"/>
    </g>
  </g>
</svg>
