<svg xmlns="http://www.w3.org/2000/svg" viewBox="0 0 801 1300"><defs><style>.cls-1{isolation:isolate;}.cls-2{mix-blend-mode:color;}.cls-3{fill:#ff9c71;}.cls-3,.cls-4{stroke:#000;}.cls-3,.cls-4,.cls-9{stroke-miterlimit:10;}.cls-4,.cls-6{fill:#e8ead3;}.cls-5{fill:#a21200;}.cls-7{fill:#168e04;}.cls-8{fill:#a9aa9a;}.cls-9{fill:#d53800;stroke:#d53800;}</style></defs><g class="cls-1"><g id="Background" class="cls-2"><rect class="cls-3" x="0.5" y="0.5" width="800" height="1299"/></g><g id="Card_type" data-name="Card type"><rect class="cls-4" x="188.5" y="38.5" width="412" height="113"/><path class="cls-5" d="M248.53,66h4.37L274.7,128h-4.63L257.74,91.51c-2.51-7.34-4.71-13.83-6.86-21.38h-.38c-2.18,7.55-4.36,14-6.86,21.38L231.12,128h-4.39Zm-11.83,37h27.74v3.65H236.7Z" transform="translate(0 0)"/><path class="cls-5" d="M300.06,111.09V86.46H286.4V83.24l13.73-.4.56-14.94h3.54V82.84h24v3.62h-24v24.93c0,8.8,2.52,14,12.59,14a31.21,31.21,0,0,0,12-2.34l1.14,3.2a35,35,0,0,1-13.74,2.8C303.83,129.1,300.06,121.83,300.06,111.09Z" transform="translate(0 0)"/><path class="cls-5" d="M356.46,111.09V86.46H342.8V83.24l13.73-.4.56-14.94h3.54V82.84h24v3.62h-24v24.93c0,8.8,2.52,14,12.59,14a31.21,31.21,0,0,0,12-2.34l1.14,3.2a35,35,0,0,1-13.74,2.8C360.23,129.1,356.46,121.83,356.46,111.09Z" transform="translate(0 0)"/><path class="cls-5" d="M400.33,116.74c0-10.11,10.13-14.88,34.61-17-.07-7.43-3.08-14.34-13.42-14.34-6.81,0-13.39,3.51-17.08,6.14l-1.93-3.08c3.6-2.59,11.45-6.71,19.5-6.71,12.09,0,17.11,7.77,17.11,17.43V128h-3.54l-.46-6.75h-.21c-5.19,4.15-12.18,7.88-18.84,7.88C408,129.1,400.33,125.19,400.33,116.74Zm34.61.59V102.89c-23,2-30.33,6.38-30.33,13.63,0,6.47,6.07,9,12.16,9C422.55,125.47,428.59,122.68,434.94,117.33Z" transform="translate(0 0)"/><path class="cls-5" d="M456.32,105.5c0-15.12,11.1-23.79,24.58-23.79a22.18,22.18,0,0,1,16.22,6.88l-2.41,2.86c-3.83-3.61-8.19-6.06-13.74-6.06-12,0-20.29,8.21-20.29,20.11s8.1,19.92,20.24,19.92c6.12,0,11.16-2.74,15.2-6.49l2.17,2.89a25.16,25.16,0,0,1-17.52,7.28C466.76,129.1,456.32,120.42,456.32,105.5Z" transform="translate(0 0)"/><path class="cls-5" d="M516.09,60.36h4.17V110h.38l29-27.18h5.17l-34.53,32.31V128h-4.17ZM532.5,101.8l2.79-2.88L557.78,128H553Z" transform="translate(0 0)"/><text/></g><g id="card_text" data-name="card text"><rect class="cls-6" x="43" y="839" width="722" height="419"/><path d="M315.88,890.31h4.37l21.8,61.93h-4.63l-12.33-36.45c-2.51-7.34-4.71-13.84-6.87-21.39h-.37c-2.18,7.55-4.36,14.05-6.86,21.39l-12.52,36.45h-4.39Zm-11.83,37h27.74V931H304.05Z" transform="translate(0 0)"/><path d="M356.17,907.11h3.52l.45,8.66h.37c5.21-5.59,10.54-9.79,17.82-9.79,10.95,0,16.2,5.91,16.2,18.15v28.11h-4.17V924.68c0-10.08-3.76-14.94-12.69-14.94-6.41,0-10.83,3.34-17.33,10.16v32.34h-4.17Z" transform="translate(0 0)"/><path d="M409,971.84l1.12-3.61a14.77,14.77,0,0,0,4.41.73c7,0,11.41-5.07,14.14-11.94l1.59-3.93-21.93-46h4.34l13.15,28.34c1.78,3.83,4,8.7,6.18,12.77h.38c1.8-4.05,3.72-8.91,5.3-12.77l11.71-28.34h4.1l-21.23,50.81c-2.7,7.52-8.32,14.86-17.86,14.86A15.78,15.78,0,0,1,409,971.84Z" transform="translate(0 0)"/><path d="M240.65,1056.85l2.79-3a26,26,0,0,0,19.14,8.37c10,0,16.22-5.07,16.22-12.35,0-7.82-5.48-10.24-12-13l-9.41-4.22c-5.77-2.38-13.46-6.22-13.46-15.41,0-9,8.05-15.26,18.91-15.26a25.5,25.5,0,0,1,18.16,7.41l-2.49,2.88a21.62,21.62,0,0,0-15.75-6.35c-8.65,0-14.47,4.35-14.47,11.06,0,7.22,6.69,9.93,11.61,11.93l9.34,4.19c7.4,3.08,14,6.92,14,16.38s-8.14,16.69-20.71,16.69A29,29,0,0,1,240.65,1056.85Z" transform="translate(0 0)"/><path d="M311,1048.17v-24.63H297.35v-3.23l13.73-.4.56-14.94h3.54v14.94h24v3.63h-24v24.93c0,8.79,2.52,14,12.59,14a31.21,31.21,0,0,0,12-2.35l1.14,3.21a35,35,0,0,1-13.74,2.79C314.78,1066.17,311,1058.9,311,1048.17Z" transform="translate(0 0)"/><path d="M352.59,1042.57c0-15.12,10.05-23.79,21.87-23.79s21.88,8.67,21.88,23.79c0,14.93-10,23.6-21.88,23.6S352.59,1057.5,352.59,1042.57Zm39.38,0c0-11.9-7.33-20.11-17.51-20.11S357,1030.67,357,1042.57s7.33,19.92,17.51,19.92S392,1054.44,392,1042.57Z" transform="translate(0 0)"/><path d="M412.57,1019.91h3.51l.46,8.66h.37c5.21-5.59,10.54-9.79,17.82-9.79,10.95,0,16.2,5.91,16.2,18.15V1065h-4.17v-27.56c0-10.08-3.76-14.94-12.69-14.94-6.41,0-10.83,3.34-17.33,10.16V1065h-4.17Z" transform="translate(0 0)"/><path d="M466.27,1042.52c0-14.72,10.82-23.74,22.63-23.74,12.34,0,20.18,7.94,20.18,20.88a21.16,21.16,0,0,1-.24,3.47H468.36v-3.55H507l-1.76,1.68c0-12.79-6.66-18.9-16.33-18.9-9.42,0-18.39,7.35-18.39,20,0,13.08,9.08,20.19,19.77,20.19a25.77,25.77,0,0,0,15.15-4.87l1.72,3.16a29.38,29.38,0,0,1-17.12,5.31C477,1066.17,466.27,1057.33,466.27,1042.52Z" transform="translate(0 0)"/><path d="M184.77,1171.83l2.2-3c5,3.89,11,6.61,20.45,6.61,9.21,0,13.93-4.15,13.93-8.89,0-4.1-1.58-7.36-15.91-10.24-11.45-2.31-18-6-18-12.67,0-6.51,5.53-12,17.62-12a31.65,31.65,0,0,1,17.32,5.55l-2.25,3a25.54,25.54,0,0,0-15.39-5c-9.83,0-13,4-13,8.22,0,4.77,4.63,7.15,14.85,9.26,15.61,3.29,19.08,6.91,19.08,13.62S218.93,1179,207,1179A38.57,38.57,0,0,1,184.77,1171.83Z" transform="translate(0 0)"/><path d="M254.61,1161v-24.63H241v-3.23l13.73-.4.56-14.94h3.54v14.94h24v3.63h-24v24.93c0,8.79,2.52,14,12.59,14a31.17,31.17,0,0,0,12-2.35l1.14,3.21a35,35,0,0,1-13.74,2.79C258.38,1179,254.61,1171.7,254.61,1161Z" transform="translate(0 0)"/><path d="M297.08,1155.32c0-14.72,10.81-23.74,22.62-23.74,12.34,0,20.18,7.94,20.18,20.88a22.31,22.31,0,0,1-.23,3.47H299.17v-3.55h38.68l-1.77,1.68c0-12.79-6.66-18.9-16.33-18.9-9.41,0-18.39,7.35-18.39,20,0,13.08,9.08,20.19,19.78,20.19a25.74,25.74,0,0,0,15.14-4.87l1.72,3.16a29.38,29.38,0,0,1-17.12,5.31C307.84,1179,297.08,1170.13,297.08,1155.32Z" transform="translate(0 0)"/><path d="M354.88,1166.61c0-10.1,10.13-14.88,34.62-17-.08-7.44-3.09-14.35-13.43-14.35-6.81,0-13.39,3.51-17.07,6.14l-1.94-3.07c3.6-2.6,11.45-6.72,19.5-6.72,12.09,0,17.11,7.77,17.11,17.43v28.83h-3.54l-.46-6.75h-.21c-5.19,4.15-12.18,7.88-18.84,7.88C362.54,1179,354.88,1175.07,354.88,1166.61Zm34.62.6v-14.45c-23,2-30.34,6.39-30.34,13.63,0,6.47,6.07,8.95,12.16,8.95C377.1,1175.34,383.14,1172.56,389.5,1167.21Z" transform="translate(0 0)"/><path d="M428.11,1164.23v-50.37H411v-3.63h21.3v54.57c0,7.12,3.43,10.49,9.84,10.49a21.18,21.18,0,0,0,9.31-2.34l1.35,3.23a23.4,23.4,0,0,1-11.26,2.79C433,1179,428.11,1174.49,428.11,1164.23Z" transform="translate(0 0)"/><path d="M490.79,1136.34H468.21v-3.63H495v45.13h-4.17Zm-3.31-19.1a4.43,4.43,0,1,1,4.43,4.51A4.3,4.3,0,0,1,487.48,1117.24Z" transform="translate(0 0)"/><path d="M525.37,1132.71h3.51l.45,8.66h.38c5.21-5.59,10.54-9.79,17.82-9.79,10.94,0,16.2,5.91,16.2,18.15v28.11h-4.17v-27.56c0-10.08-3.76-14.94-12.7-14.94-6.41,0-10.82,3.34-17.32,10.16v32.34h-4.17Z" transform="translate(0 0)"/><path d="M579.72,1186.48c0-3.53,2.77-7.6,7.66-10.63v-.38a7.91,7.91,0,0,1-4.7-7.24c0-2.85,1.9-6.07,5.45-8.49v-.37a14.82,14.82,0,0,1-5.37-11.71c0-9.28,7.59-16.08,16.79-16.08a15.4,15.4,0,0,1,6.22,1.13H624.6v3.63H611a16.15,16.15,0,0,1,5.29,11.4c0,9.23-7.46,15.76-16.72,15.76a19.28,19.28,0,0,1-8.52-2.1c-2.67,1.62-4.4,3.86-4.4,6.29,0,4.33,4.1,6.29,10.38,6.29h11.21c11.47,0,16.43,2.87,16.43,10.17,0,7.8-9.25,15.43-23.87,15.43C586.75,1199.58,579.72,1194.36,579.72,1186.48Zm40.67-1.86c0-5.08-3.89-6.71-11.8-6.71H597.88a25.25,25.25,0,0,1-6.89-.82c-5.42,2.9-7.26,6.21-7.26,9.46,0,5.48,5.51,9.58,16.79,9.58C612.92,1196.13,620.39,1190.28,620.39,1184.62Zm-8.26-37a12.58,12.58,0,1,0-12.58,12.52A12.38,12.38,0,0,0,612.13,1147.66Z" transform="translate(0 0)"/></g><g id="card_logo_right" data-name="card logo right"><rect class="cls-7" x="339" y="440" width="22" height="108"/><rect class="cls-7" x="314" y="488" width="19" height="62" transform="translate(-272.24 380.76) rotate(-45)"/><rect class="cls-7" x="368.23" y="488.36" width="19" height="62" transform="translate(277.58 1153.7) rotate(-135)"/><path class="cls-6" d="M369.25,195.45l-.21.06L388.9,235l55.24.85h0ZM450.49,221,506,250.86,331.39,431,162,251.29,341,162ZM353.35,384.14,456.86,262.89l-54.37,3.87ZM273.88,238.39l54.37-46L220.56,237.1ZM316.75,385,263.43,263.75,211.15,262Z" transform="translate(0 0)"/><polygon class="cls-8" points="456.86 262.89 353.35 384.13 402.49 266.76 456.86 262.89"/><polygon class="cls-8" points="444.13 235.79 444.13 235.8 388.9 234.95 369.04 195.51 369.25 195.45 444.13 235.79"/><polygon class="cls-8" points="328.25 192.38 273.88 238.39 220.56 237.1 328.25 192.38"/><polygon class="cls-8" points="263.43 263.75 316.75 385 211.15 262.03 263.43 263.75"/><rect class="cls-9" x="310.37" y="138.98" width="29.5" height="363.99" transform="translate(-131.74 323.9) rotate(-45)"/><path class="cls-6" d="M459.86,634.17h0L385,593.81l-.21.07,19.85,39.43ZM356.71,560.32l165,88.9L347.11,829.37,177.72,649.65ZM369.07,782.5,472.58,661.26l-54.37,3.87ZM289.6,636.75l54.37-46L236.28,635.46Zm42.87,146.61L279.15,662.12l-52.28-1.72Z" transform="translate(0 0)"/><polygon class="cls-8" points="472.58 661.26 369.07 782.5 418.21 665.13 472.58 661.26"/><polygon class="cls-8" points="459.86 634.16 459.86 634.17 404.62 633.32 384.77 593.88 384.98 593.81 459.86 634.16"/><polygon class="cls-8" points="343.97 590.75 289.6 636.75 236.28 635.46 343.97 590.75"/><polygon class="cls-8" points="279.15 662.12 332.47 783.36 226.87 660.4 279.15 662.12"/><rect class="cls-9" x="309.98" y="139.37" width="29.5" height="363.99" transform="translate(327.11 778.22) rotate(-135)"/></g></g></svg>